<svg width="28" height="19" viewBox="0 0 28 19" fill="none" xmlns="http://www.w3.org/2000/svg">
<path d="M21.5204 19C21.4016 19 21.3169 18.9971 21.2748 18.9953C18.9568 18.99 17.1375 18.2826 15.8669 16.8926C15.5146 16.5071 15.2114 16.0767 14.9589 15.6042C14.369 16.7753 13.4639 17.4702 12.6883 17.8752C11.3055 18.5976 9.87756 18.6537 9.47287 18.6537C9.44144 18.6537 9.41868 18.6533 9.40522 18.6531H1.07694C0.483109 18.6531 0 18.1598 0 17.5535V1.18776C0 0.581435 0.483109 0.0881613 1.07694 0.0881613H9.41675C10.9868 0.0881613 12.3438 0.55459 13.341 1.43702C14.4459 2.41485 15.0299 3.83505 15.0299 5.54411C15.0299 6.93395 14.582 7.86058 14.0509 8.47077C14.139 8.54911 14.2239 8.63227 14.3052 8.72007C14.3869 8.80821 14.465 8.90094 14.5393 8.99802C14.6483 8.67454 14.7823 8.33972 14.9468 8.00357C15.7845 6.29197 17.5669 4.2517 21.3011 4.2517C23.4508 4.2517 25.1354 4.94316 26.3081 6.30683C28.4106 8.75215 27.9679 12.4411 27.948 12.5969C27.925 12.7768 27.8597 12.9421 27.7632 13.0829C27.8264 13.2228 27.8617 13.3785 27.8617 13.5424C27.8617 15.6875 26.8444 17.3615 24.9972 18.2564C23.6117 18.9275 22.1042 19 21.5204 19ZM15.2644 12.2356L15.5233 13.4C15.754 14.4372 16.1875 15.3094 16.8118 15.9923C17.831 17.1074 19.3379 17.6738 21.2908 17.6758L21.3218 17.6765C21.4763 17.6844 23.0563 17.7361 24.4433 17.0642C25.7907 16.4115 26.5037 15.3012 26.5651 13.7623H24.1659C24.132 14.0076 24.0223 14.4035 23.678 14.764C23.1977 15.2669 22.4313 15.5225 21.4003 15.5235C21.2679 15.5302 20.4134 15.5531 19.6371 15.0817C18.9271 14.6507 18.4945 13.9207 18.3861 12.9708L18.3021 12.2347H26.6857C26.7451 11.5083 26.8356 8.9204 25.337 7.17745C24.4205 6.11165 23.0626 5.57122 21.3011 5.57122C18.2272 5.57122 16.7776 7.21469 16.1029 8.5934C15.6466 9.52578 15.4673 10.4544 15.3973 11.0691L15.2644 12.2356ZM1.29233 17.3336L9.47278 17.3342C9.80445 17.3342 10.9741 17.2885 12.0997 16.7005C13.3505 16.0473 14.0746 14.9593 14.2518 13.4668L14.3978 12.2373L14.129 11.155C13.9704 10.5158 13.7138 10.0017 13.3665 9.62685C13.1755 9.42076 12.9558 9.25556 12.7134 9.13577L11.6997 8.63481L12.6348 7.99407C13.3666 7.49272 13.7375 6.66845 13.7375 5.54411C13.7375 4.22923 13.3077 3.15381 12.4946 2.43413C11.7357 1.76265 10.6714 1.40768 9.41675 1.40768H1.29233V17.3336ZM21.4056 15.5231C21.4054 15.5232 21.4052 15.5232 21.4049 15.5232L21.4056 15.5231ZM19.9012 13.5542C20.0021 13.7177 20.1338 13.8481 20.2976 13.9476C20.7034 14.194 21.2005 14.2064 21.296 14.2064C21.3112 14.2064 21.3225 14.2063 21.3292 14.206L21.3297 14.2059C21.3503 14.2047 21.3746 14.2039 21.3949 14.2039C22.0387 14.2039 22.5335 14.0722 22.7528 13.8427C22.8673 13.7228 22.8851 13.5938 22.8878 13.5649C22.8877 13.5614 22.8876 13.5578 22.8875 13.5542H19.9012ZM9.18537 14.8655H4.5372V10.0516H9.41919C10.1297 10.0572 11.3236 10.5832 11.3236 12.5187C11.3236 14.4178 10.1648 14.843 9.19261 14.8653L9.18537 14.8655ZM5.82953 13.546H9.17073C9.77744 13.5309 10.0312 13.3828 10.0312 12.5187C10.0312 11.4682 9.55805 11.3747 9.413 11.3711H5.82953V13.546ZM24.1125 10.4914H18.1756L18.4951 9.60404C18.9698 8.28517 20.0154 7.52876 21.3639 7.52876C22.1509 7.52876 22.7841 7.76917 23.2461 8.24329C23.6955 8.70461 23.8837 9.29302 23.9624 9.70537L24.1125 10.4914ZM20.3149 9.17189H22.3279C22.1173 8.95717 21.7931 8.84828 21.3639 8.84828C20.9464 8.84828 20.596 8.9567 20.3149 9.17189ZM9.12745 7.96774H4.5372V3.87551L9.42196 3.8753L9.43568 3.8759C9.57185 3.88178 10.766 3.98594 10.766 5.79861C10.766 7.72119 9.89031 7.96774 9.12745 7.96774ZM5.82953 6.64822H9.12745C9.2001 6.64822 9.3064 6.64822 9.35327 6.63753C9.3796 6.59466 9.47362 6.39944 9.47362 5.79861C9.47362 5.39902 9.38717 5.23369 9.35146 5.19482L5.82953 5.19495V6.64822Z" fill="black"/>
<path d="M24.4508 4.21392H17.8373C17.2435 4.21392 16.7604 3.72064 16.7604 3.11432V1.0996C16.7604 0.493274 17.2435 0 17.8373 0H24.4508C25.0447 0 25.5278 0.493274 25.5278 1.0996V3.11432C25.5278 3.72064 25.0447 4.21392 24.4508 4.21392ZM18.0527 2.8944H24.2354V1.31952H18.0527V2.8944Z" fill="black"/>
</svg>
