<svg width="44" height="43" viewBox="0 0 44 43" fill="none" xmlns="http://www.w3.org/2000/svg">
<path d="M27.1573 23.7018H28.5935C31.7923 23.7018 34.1424 23.5075 35.6439 23.1837C37.1454 22.8599 38.451 22.2771 39.5608 21.5C40.9317 20.5286 42.0415 19.1687 42.8249 17.4849C43.6083 15.8012 44 13.9232 44 11.8509C44 9.77861 43.6083 7.9006 42.8249 6.15211C42.0415 4.46837 40.997 3.10843 39.5608 2.13705C38.451 1.35994 37.1454 0.841867 35.6439 0.518072C34.0771 0.194277 31.7923 0 28.5935 0H19.5193V15.2831L6.00593 0H0L17.1691 19.2982H16.8427H15.4065C12.2077 19.2982 9.85757 19.4925 8.35608 19.8163C6.8546 20.1401 5.54896 20.7229 4.43917 21.5C3.06825 22.4714 1.95846 23.8313 1.17507 25.5151C0.391691 27.1988 0 29.0768 0 31.1491C0 33.2214 0.391691 35.0994 1.17507 36.8479C1.95846 38.5316 3.06825 39.8916 4.43917 40.8629C5.54896 41.6401 6.8546 42.1581 8.35608 42.4819C9.85757 42.8057 12.2077 43 15.4065 43H19.5193H24.546V38.7907V38.2726V31.4081L19.5193 25.7093V38.3373H19.454H18.0831H16.8427C12.5341 38.3373 9.53116 37.7545 7.96439 36.6536C6.39763 35.5527 5.61424 33.6099 5.61424 30.8901C5.61424 28.2997 6.39763 26.5512 7.89911 25.5151C9.40059 24.4789 12.4036 23.9608 16.8427 23.9608H18.0831H19.454H19.5193H21.2819L38.1246 42.9352H43.9347L26.9614 23.7018H27.1573ZM24.546 4.66265H27.1573C31.4659 4.66265 34.4688 5.24548 36.0356 6.34639C37.6024 7.44729 38.3858 9.39006 38.3858 12.1099C38.3858 14.7003 37.6024 16.4488 36.1009 17.4849C34.5994 18.5211 31.5964 19.0392 27.1573 19.0392H24.546V4.66265Z" fill="white"/>
</svg>
