<svg width="69" height="73" viewBox="0 0 69 73" fill="none" xmlns="http://www.w3.org/2000/svg">
<path d="M29.806 0.366959C29.8864 0.366959 29.9266 0.407732 29.9266 0.448505L30.1276 2.12021L32.4594 1.83479L32.2584 0.163093C32.2584 0.0815464 32.2986 0.0407732 32.379 0.0407732L32.8614 0C32.9418 0 32.982 0.0407732 32.982 0.0815464L33.4644 4.28118C33.4644 4.36273 33.4242 4.4035 33.384 4.4035L32.9016 4.48505C32.8212 4.48505 32.781 4.44428 32.781 4.4035L32.58 2.56871L30.2482 2.85412L30.4492 4.68892C30.4492 4.77046 30.409 4.81124 30.3688 4.81124L29.8462 4.85201C29.7658 4.85201 29.7256 4.81124 29.7256 4.77046L29.203 0.570825C29.203 0.489278 29.2432 0.448505 29.2834 0.448505L29.806 0.366959Z" fill="black"/>
<path d="M39.2536 4.03655C38.7712 4.44428 38.2084 4.60737 37.5651 4.5666C36.5601 4.48505 35.9972 3.83268 36.0776 3.05799C36.158 2.2833 36.8415 1.83479 37.6455 1.79402L39.3742 1.71247V1.59015C39.4145 1.10088 39.0124 0.815464 38.4094 0.774691C37.8867 0.733917 37.3641 0.815464 36.9219 1.10088C36.8817 1.14165 36.8013 1.14165 36.7611 1.0601L36.5199 0.652371C36.4797 0.570825 36.4797 0.530051 36.5601 0.489278C37.1229 0.12232 37.7661 0 38.4898 0.0407732C39.4145 0.12232 40.2185 0.693144 40.0979 1.6717L39.9773 3.18031C39.9371 3.54727 39.9773 3.87345 40.0577 4.19964L40.1381 4.44428C40.1783 4.52582 40.1381 4.5666 40.0577 4.5666L39.6155 4.68892C39.5351 4.68892 39.4949 4.68892 39.4949 4.60737L39.2536 4.03655ZM39.334 2.32407L37.6455 2.44639C37.2033 2.48716 36.8415 2.69103 36.8013 3.05799C36.7611 3.54727 37.1631 3.83268 37.6455 3.87345C38.2486 3.91423 38.8516 3.71036 39.2134 3.26185L39.334 2.32407Z" fill="black"/>
<path d="M47.3344 2.03866C47.4148 2.07943 47.4148 2.12021 47.4148 2.16098L46.2087 6.19752C46.1685 6.27907 46.1283 6.27907 46.0881 6.27907L45.6057 6.11598C45.5253 6.0752 45.5253 6.03443 45.5253 5.99366L46.5705 2.52794L44.3996 1.87557L43.3543 5.34129C43.3141 5.42283 43.2739 5.42283 43.2337 5.42283L42.7513 5.25974C42.6709 5.21897 42.6709 5.17819 42.6709 5.13742L43.877 1.10088C43.9172 1.01933 43.9574 1.01933 43.9976 1.01933L47.3344 2.03866Z" fill="black"/>
<path d="M51.2743 3.79191C51.3547 3.83268 51.3547 3.87345 51.3145 3.955L50.3898 5.66747L49.7063 6.80912L49.7466 6.8499L50.8722 6.31984L53.4854 5.17819C53.5658 5.13742 53.606 5.17819 53.6864 5.17819L54.0884 5.42283C54.1689 5.46361 54.1689 5.50438 54.1287 5.58593L52.1185 9.25551C52.0783 9.33706 52.0381 9.33706 51.9979 9.29629L51.5557 9.05165C51.4753 9.01087 51.4753 8.9701 51.5155 8.88855L52.4401 7.17608L53.1236 6.03443L53.0834 5.99366L51.8773 6.60526L49.3445 7.70613C49.3043 7.74691 49.2239 7.74691 49.1837 7.70613L48.7415 7.46149C48.6611 7.42072 48.6611 7.37995 48.7013 7.2984L50.7114 3.62881C50.7516 3.54727 50.7918 3.54727 50.8722 3.58804L51.2743 3.79191Z" fill="black"/>
<path d="M56.5006 11.9058L58.9128 9.21474C58.953 9.17397 59.0334 9.17397 59.0736 9.21474L59.4354 9.54093C59.4756 9.5817 59.4756 9.66324 59.4354 9.70402L57.0233 12.395L58.2293 13.4959L60.6415 10.8049C60.6817 10.7641 60.7621 10.7641 60.8023 10.8049L61.1641 11.1311C61.2043 11.1719 61.2043 11.2534 61.1641 11.2942L58.3499 14.3929C58.3097 14.4337 58.2293 14.4337 58.1891 14.3929L54.3297 10.8457C54.2895 10.8049 54.2895 10.7233 54.3297 10.6826L57.1439 7.58381C57.1841 7.54304 57.2645 7.54304 57.3047 7.58381L57.6665 7.91C57.7067 7.95077 57.7067 8.03232 57.6665 8.07309L55.2543 10.7641L56.5006 11.9058Z" fill="black"/>
<path d="M63.8175 14.5153C63.8577 14.556 63.8577 14.6376 63.7773 14.6783L60.4405 17.2063C60.4003 17.2471 60.3199 17.2471 60.2797 17.1655L59.958 16.7578C59.9178 16.717 59.9178 16.6355 59.9982 16.5947L63.3351 14.0667C63.3753 14.026 63.4557 14.026 63.4959 14.1075L63.8175 14.5153ZM64.2195 13.1697C64.4608 12.9659 64.8226 13.0474 65.0236 13.2921C65.1844 13.5367 65.1442 13.9037 64.903 14.1075C64.6618 14.3114 64.2597 14.2298 64.0989 13.9852C63.8979 13.7406 63.9783 13.3736 64.2195 13.1697Z" fill="black"/>
<path d="M67.476 20.5905C67.5162 20.672 67.476 20.7128 67.4358 20.7536L67.0337 20.9574C66.9533 20.9982 66.9131 20.9574 66.8729 20.9166L66.1493 19.5711L62.9733 21.2836C62.9331 21.3244 62.8526 21.2836 62.8124 21.2428L62.5712 20.7943C62.531 20.7128 62.5712 20.672 62.6114 20.6312L65.7874 18.9188L65.0638 17.5732C65.0236 17.4917 65.0638 17.4509 65.104 17.4102L65.506 17.2063C65.5864 17.1655 65.6266 17.2063 65.6668 17.2471L67.476 20.5905Z" fill="black"/>
<path d="M68.6418 23.73C68.7222 23.6892 68.7624 23.73 68.7624 23.7708L68.9233 24.3008C68.9635 24.3824 68.9233 24.4231 68.8428 24.4231L67.7574 24.7493L68.1594 26.0948C68.4408 27.0326 67.9986 27.9296 67.1543 28.1743C66.3101 28.4597 65.4256 27.9704 65.1442 27.0326L64.5412 25.0755C64.5412 24.994 64.5412 24.9532 64.6216 24.9532L68.6418 23.73ZM65.4256 25.524L65.8276 26.8695C65.9885 27.4404 66.4709 27.6442 66.9533 27.5219C67.4358 27.3588 67.7172 26.9511 67.5162 26.3803L67.1141 25.0347L65.4256 25.524Z" fill="black"/>
<path d="M67.9182 50.4364C67.5966 51.1703 66.9131 51.8635 66.1091 51.4965C65.8678 51.3742 65.6668 51.1296 65.6266 50.7626H65.5864C65.1844 51.1703 64.7824 51.1703 64.3401 51.0073C63.4557 50.5995 63.3351 49.5802 63.7773 48.6016C64.0989 47.8677 64.5412 47.3784 65.305 47.093C65.3854 47.0523 65.4256 47.093 65.4658 47.1338L65.6668 47.5823C65.707 47.6231 65.6668 47.7046 65.5864 47.7046C65.0236 47.9085 64.6216 48.3162 64.3803 48.8463C64.0989 49.4986 64.1793 50.1102 64.6216 50.2733C65.104 50.4772 65.3854 50.1918 65.5864 49.7433L65.9885 48.8055C66.0287 48.724 66.0689 48.724 66.1493 48.7647L66.5513 48.9686C66.5915 49.0094 66.6317 49.0501 66.5915 49.1317L66.1895 50.1102C66.0689 50.3957 66.0689 50.7218 66.3503 50.8442C66.7121 51.0073 67.0337 50.6811 67.2749 50.151C67.476 49.6617 67.5162 49.254 67.3554 48.7647C67.3554 48.724 67.3554 48.6424 67.3956 48.6424L67.878 48.4793C67.9182 48.4793 67.9584 48.4793 67.9584 48.5609C68.28 49.2132 68.1996 49.8248 67.9182 50.4364Z" fill="black"/>
<path d="M60.5611 55.5331C60.4405 54.9215 60.6013 54.3507 60.9631 53.7798C61.5662 52.9236 62.3702 52.8013 63.0135 53.2498C63.6567 53.6983 63.6969 54.5137 63.2949 55.2477L62.4908 56.7971L62.6114 56.8786C63.0135 57.164 63.4557 56.9194 63.7773 56.4709C64.0989 56.0224 64.2597 55.5331 64.2597 54.9623C64.2597 54.9215 64.2999 54.8399 64.3803 54.8399H64.8226C64.903 54.8399 64.9432 54.8807 64.9432 54.9623C64.9834 55.6554 64.7824 56.267 64.3401 56.8786C63.8175 57.6533 62.933 58.061 62.129 57.4902L60.8827 56.5932C60.6013 56.3893 60.3199 56.2262 59.958 56.1447L59.7168 56.0631C59.6364 56.0631 59.6364 55.9816 59.6364 55.9408L59.757 55.4923C59.757 55.4108 59.8374 55.4108 59.8776 55.4108L60.5611 55.5331ZM61.9682 56.4301L62.732 54.9215C62.9331 54.5138 62.933 54.106 62.6114 53.9021C62.2094 53.6167 61.7672 53.8614 61.4857 54.2283C61.1239 54.7176 61.0033 55.37 61.2043 55.9L61.9682 56.4301Z" fill="black"/>
<path d="M58.3499 63.4431C58.3097 63.4839 58.2293 63.4839 58.1891 63.4431L57.8675 63.1169C57.8273 63.0761 57.8273 62.9946 57.8675 62.9538L58.953 61.9345L56.5006 59.2842C56.4604 59.2434 56.4604 59.1619 56.5006 59.1211L56.8624 58.7542C56.9026 58.7134 56.983 58.7134 57.0233 58.7542L59.4756 61.4044L60.5611 60.3851C60.6013 60.3443 60.6817 60.3443 60.7219 60.3851L61.0435 60.7113C61.0837 60.752 61.0837 60.8336 61.0435 60.8744L58.3499 63.4431Z" fill="black"/>
<path d="M54.1689 66.5826C53.0834 67.2758 51.7969 66.9496 51.1134 65.8487L50.9928 65.6448C50.9526 65.5633 50.9526 65.5225 51.033 65.5225L54.0884 63.5654C53.606 63.0353 52.8422 62.8723 52.1185 63.3615C51.6361 63.6469 51.3949 64.0139 51.1939 64.5847C51.1939 64.6255 51.1536 64.6663 51.0732 64.6255L50.5908 64.4624C50.5104 64.4216 50.5104 64.3809 50.5104 64.3401C50.7114 63.6469 51.1537 63.1577 51.7165 62.7907C52.8824 62.0568 54.1689 62.383 54.8925 63.4838C55.5759 64.544 55.2543 65.8895 54.1689 66.5826ZM54.4503 64.0954L51.9175 65.6856C52.3597 66.2564 53.1638 66.3787 53.807 65.971C54.4905 65.5633 54.7317 64.7886 54.4503 64.0954Z" fill="black"/>
<path d="M44.4398 66.2157C44.5202 66.1749 44.5604 66.2157 44.6006 66.2972L45.8067 69.7221L47.4148 69.1513L46.8118 66.4195C46.6911 65.8079 46.852 65.3186 47.455 65.1148C47.7766 64.9925 48.0178 64.9925 48.3797 65.1963C48.4199 65.2371 48.4601 65.2779 48.4199 65.3186L48.2188 65.7672C48.2188 65.8079 48.1384 65.8487 48.0982 65.8079C47.9776 65.7264 47.8168 65.6856 47.656 65.7264C47.4952 65.8079 47.4148 65.971 47.455 66.2157L48.1384 69.4775C48.1384 69.5183 48.1384 69.5591 48.058 69.5998L45.4047 70.5784C45.3243 70.6192 45.284 70.5784 45.2438 70.4968L43.8368 66.5418C43.7965 66.4603 43.8368 66.4195 43.9172 66.3787L44.4398 66.2157Z" fill="black"/>
<path d="M39.7361 71.8016C38.4496 71.9647 37.4445 71.1084 37.2837 69.8037L37.2435 69.5591C37.2435 69.4775 37.2435 69.4367 37.3239 69.4367L40.902 68.9882C40.7009 68.2951 40.0577 67.8466 39.2134 67.9281C38.6506 68.0097 38.2888 68.2135 37.8867 68.662C37.8465 68.7028 37.8063 68.7028 37.7661 68.662L37.4043 68.2951C37.3641 68.2543 37.3641 68.2135 37.4043 68.132C37.8867 67.6019 38.4898 67.3165 39.133 67.235C40.4999 67.0719 41.5452 67.8874 41.706 69.1921C41.8668 70.5376 41.0226 71.6385 39.7361 71.8016ZM41.0226 69.6814L38.0878 70.0483C38.2486 70.7415 38.932 71.19 39.6959 71.1084C40.4597 70.9861 40.9824 70.4153 41.0226 69.6814Z" fill="black"/>
<path d="M30.409 72.9432C30.3286 72.9432 30.2884 72.9025 30.3286 72.8209L30.5296 71.3123C30.208 71.5569 29.8462 71.6385 29.4844 71.5977C28.2783 71.4346 27.635 70.4153 27.7959 69.0698C27.9567 67.7243 28.8411 66.9088 30.0472 67.0311C30.409 67.0719 30.7307 67.235 30.9719 67.5612L31.1729 65.971C31.1729 65.8895 31.2131 65.8487 31.2935 65.8895L31.7759 65.971C31.8563 65.971 31.8965 66.0118 31.8563 66.0933L31.6553 67.6835C31.9769 67.4389 32.3388 67.3573 32.7006 67.3981C33.9067 67.5612 34.5499 68.5805 34.3891 69.926C34.2283 71.2715 33.384 72.087 32.1378 71.9239C31.7759 71.8831 31.4543 71.72 31.2131 71.3939L31.0121 72.9025C31.0121 72.984 30.9719 73.0248 30.8915 72.984L30.409 72.9432ZM30.8915 68.3766C30.6905 68.0504 30.3688 67.8058 30.007 67.765C29.1628 67.6427 28.6803 68.2951 28.5597 69.1921C28.4391 70.1299 28.8009 70.823 29.605 70.9453C30.007 70.9861 30.2884 70.9046 30.6101 70.7007L30.8915 68.3766ZM31.3337 70.7415C31.5749 71.0269 31.8563 71.19 32.2584 71.2308C33.1026 71.3531 33.5851 70.7415 33.7057 69.8037C33.8263 68.9067 33.4644 68.1728 32.6604 68.0504C32.2986 68.0097 31.9367 68.1728 31.6151 68.4174L31.3337 70.7415Z" fill="black"/>
<path d="M22.0871 69.5183C20.9212 69.029 20.3584 67.765 20.8408 66.5418C21.3232 65.3186 22.6097 64.7886 23.7756 65.2779C24.9415 65.7672 25.5043 67.0311 25.0219 68.2543C24.5394 69.4775 23.2932 69.9668 22.0871 69.5183ZM24.3384 67.9281C24.66 67.0719 24.3384 66.2157 23.4942 65.8895C22.6499 65.5633 21.8459 65.9302 21.484 66.7865C21.1624 67.6427 21.484 68.499 22.3283 68.8251C23.2127 69.1921 24.0168 68.7844 24.3384 67.9281Z" fill="black"/>
<path d="M16.4989 66.5826C16.4587 66.5418 16.4185 66.5011 16.4587 66.4195L17.3834 65.0332L15.4134 63.6877L14.4888 65.074C14.4486 65.1148 14.4083 65.1555 14.3279 65.1148L13.9259 64.8294C13.8857 64.7886 13.8455 64.7478 13.8857 64.6663L16.2175 61.1598C16.2577 61.119 16.2979 61.0782 16.3783 61.119L16.7803 61.4044C16.8607 61.4452 16.8607 61.5267 16.8205 61.5675L15.8154 63.1169L17.7854 64.4624L18.7905 62.913C18.8307 62.8722 18.8709 62.8315 18.9513 62.8722L19.3533 63.1577C19.3935 63.1984 19.4337 63.2392 19.3935 63.3208L17.0617 66.8272C17.0215 66.868 16.9813 66.9088 16.9009 66.868L16.4989 66.5826Z" fill="black"/>
<path d="M8.29753 59.4881C8.25733 59.4473 8.25733 59.4065 8.33774 59.3658L12.8404 57.531C13.4435 57.2863 14.0465 57.2863 14.4888 57.7756C14.5692 57.8572 14.6496 57.9387 14.6496 58.0202C14.6898 58.061 14.6898 58.1426 14.6496 58.1833L14.3279 58.5095C14.2877 58.5503 14.2073 58.5503 14.1671 58.5095C14.1269 58.4688 14.0867 58.3872 14.0465 58.3464C13.8053 58.1018 13.5239 58.0202 13.2023 58.1833L13.0415 58.2649L11.3931 62.6276C11.3931 62.6684 11.3529 62.6684 11.3127 62.6276L10.8303 62.1383C10.7901 62.0976 10.7901 62.0976 10.7901 62.0568L12.157 58.6318L12.1168 58.5911L8.90058 60.0181C8.86037 60.0181 8.82017 60.0181 8.77997 60.0181L8.29753 59.4881Z" fill="black"/>
<path d="M4.75969 56.7155C4.71949 56.7563 4.67929 56.797 4.63909 56.7563L4.27726 56.5116C4.23706 56.4709 4.23706 56.4301 4.23706 56.3893C4.39787 56.1447 4.39787 55.9 4.23706 55.6554C4.07625 55.4108 3.87523 55.3292 3.59381 55.3292C3.55361 55.3292 3.51341 55.3292 3.51341 55.2477L3.433 54.7992C3.433 54.7176 3.433 54.7176 3.51341 54.7176C4.07625 54.6361 4.47827 54.8399 4.7999 55.3292C5.08132 55.7777 5.08132 56.267 4.75969 56.7155ZM5.88537 56.2262C5.84517 56.1447 5.84517 56.1039 5.92557 56.0631L7.57389 55.0438L8.69956 54.3914V54.3507L7.45328 54.2691L4.59888 53.9837C4.51848 53.9837 4.47827 53.9429 4.43807 53.8614L4.19686 53.4536C4.15665 53.3721 4.15665 53.3313 4.23706 53.2906L7.7749 51.048C7.8553 51.0073 7.89551 51.0073 7.93571 51.0888L8.21713 51.5373C8.25733 51.6189 8.25733 51.6596 8.17693 51.7004L6.52861 52.7605L5.40294 53.4129V53.4536L6.76983 53.5352L9.54382 53.8206C9.58402 53.8206 9.66443 53.8614 9.66443 53.9021L9.94585 54.3507C9.98605 54.4322 9.98605 54.473 9.90564 54.5137L6.3678 56.7563C6.2874 56.797 6.2472 56.7971 6.20699 56.7155L5.88537 56.2262Z" fill="black"/>
<path d="M1.34246 46.7668C1.30226 46.6853 1.34246 46.6445 1.42287 46.6038L1.8651 46.4407C1.9455 46.3999 1.98571 46.4407 2.02591 46.5222L2.54854 47.9493L5.92557 46.6853C5.96578 46.6853 6.04618 46.6853 6.08638 46.7668L6.2472 47.2561C6.2874 47.3377 6.2472 47.3784 6.16679 47.4192L2.78976 48.6832L3.3124 50.1102C3.3526 50.1918 3.3124 50.2326 3.23199 50.2733L2.78976 50.4364C2.70936 50.4772 2.66915 50.4364 2.62895 50.3549L1.34246 46.7668Z" fill="black"/>
<path d="M0.176583 41.6294C-0.024431 40.3655 0.739421 39.2646 2.02591 39.0607L2.26712 39.0199C2.34753 39.0199 2.38773 39.0199 2.38773 39.1015L2.95057 42.7303C3.63402 42.4857 4.07625 41.8333 3.91544 40.9771C3.83503 40.447 3.59382 40.0393 3.15159 39.6315C3.11138 39.5908 3.11138 39.55 3.15159 39.5092L3.51341 39.1423C3.55361 39.1015 3.59382 39.1015 3.67422 39.1423C4.19686 39.6315 4.51848 40.2024 4.59888 40.8955C4.7999 42.2818 3.99584 43.3827 2.74956 43.5865C1.46307 43.7496 0.377596 42.9342 0.176583 41.6294ZM2.30733 42.8526L1.82489 39.8762C1.14145 40.08 0.699218 40.7732 0.819826 41.5479C0.940435 42.3226 1.54348 42.8526 2.30733 42.8526Z" fill="black"/>
<path d="M0.0961772 30.9468C0.0961772 30.8653 0.13638 30.8245 0.216785 30.8653L1.82489 31.1507L2.22692 28.7859L0.618813 28.5005C0.538407 28.5005 0.498205 28.4597 0.538407 28.3781L0.618813 27.8889C0.618813 27.8073 0.659015 27.7665 0.739421 27.8073L4.8401 28.5412C4.92051 28.5412 4.96071 28.582 4.92051 28.6636L4.8401 29.1528C4.8401 29.2344 4.75969 29.2751 4.71949 29.2344L2.91037 28.9082L2.50834 31.273L4.31746 31.5992C4.39787 31.5992 4.43807 31.64 4.39787 31.7215L4.31746 32.2108C4.31746 32.2924 4.27726 32.3331 4.19686 32.2924L0.0961772 31.5992C0.0157717 31.5992 -0.024431 31.5584 0.0157717 31.4769L0.0961772 30.9468Z" fill="black"/>
<path d="M6.3276 22.833C6.56882 23.4038 6.56882 24.0154 6.3276 24.627C5.96578 25.5648 5.16172 25.9317 4.47828 25.6056C3.75463 25.3202 3.51341 24.5047 3.75463 23.73L4.19686 22.0175L4.03605 21.9767C3.59382 21.7729 3.19179 22.0991 2.99077 22.6699C2.78976 23.1592 2.74956 23.6892 2.87017 24.2193C2.87017 24.26 2.87017 24.3416 2.78976 24.3416L2.30733 24.4639C2.22692 24.5047 2.18672 24.4639 2.18672 24.3824C2.02591 23.7708 2.06611 23.0776 2.30733 22.4253C2.66915 21.5282 3.433 20.9574 4.31746 21.3244L5.72456 21.8952C6.04618 22.0175 6.3678 22.0991 6.72963 22.0991H6.97084C7.05125 22.0991 7.05125 22.1398 7.05125 22.2214V22.6699C7.05125 22.7514 7.01105 22.7922 6.93064 22.7922L6.3276 22.833ZM4.71949 22.2622L4.31746 23.9339C4.19686 24.3824 4.31746 24.7901 4.67929 24.9124C5.12152 25.1163 5.52355 24.7493 5.68436 24.3008C5.92557 23.73 5.88537 23.0776 5.56375 22.5883L4.71949 22.2622Z" fill="black"/>
<path d="M7.53368 13.4144C7.57389 13.3736 7.61409 13.3328 7.69449 13.3736L11.1117 15.7792C11.1519 15.82 11.1921 15.8608 11.1519 15.9423L10.8705 16.35C10.8303 16.3908 10.7901 16.4316 10.7097 16.3908L9.14179 15.2899L8.05632 14.556L9.02118 16.0239L9.90564 17.5325C9.94585 17.614 9.94585 17.6548 9.90564 17.7363L9.66443 18.0625C9.62422 18.1033 9.54382 18.1441 9.46341 18.1441L7.7749 17.8179L6.04618 17.4509L7.09145 18.1441L8.65936 19.2449C8.69956 19.2857 8.73977 19.3265 8.69956 19.408L8.41814 19.8158C8.37794 19.8565 8.33774 19.8973 8.25733 19.8565L4.8401 17.4509C4.7999 17.4102 4.75969 17.3694 4.7999 17.2878L5.24213 16.6762C5.28233 16.6355 5.36274 16.5947 5.40294 16.6355L7.53368 17.0432L8.90058 17.3286L8.94078 17.2878L8.09652 15.9015L7.13166 14.2298C7.09145 14.1483 7.09145 14.0667 7.13166 14.026L7.53368 13.4144Z" fill="black"/>
</svg>
