<svg width="87" height="87" viewBox="0 0 87 87" fill="none" xmlns="http://www.w3.org/2000/svg">
<!--<path d="M48.7878 44.4077C51.3481 44.4077 53.1972 44.2681 54.3351 43.9888C55.473 43.7095 56.611 43.2905 57.4644 42.5923C58.6023 41.7544 59.4557 40.7769 60.0247 39.3804C60.5936 37.984 61.0204 36.5875 61.0204 34.9117C61.0204 33.236 60.7359 31.8395 60.0247 30.443C59.4557 29.0465 58.6023 28.069 57.4644 27.2311C56.611 26.6726 55.6153 26.2536 54.3351 25.9743C53.1972 25.695 51.3481 25.5554 48.7878 25.5554H41.5337V37.7047L30.7235 25.5554H26.0297L39.6846 40.9165H38.2622C35.7019 40.9165 33.8528 41.0562 32.7149 41.3355C31.577 41.6148 30.4391 42.0337 29.5856 42.7319C28.4477 43.5698 27.5943 44.5474 27.0253 45.9438C26.4564 47.3403 26.0297 48.7368 26.0297 50.4125C26.0297 52.0883 26.3141 53.4848 27.0253 54.8812C27.5943 56.2777 28.59 57.2552 29.5856 58.0931C30.4391 58.6517 31.4347 59.0706 32.7149 59.3499C33.8528 59.6292 35.7019 59.7689 38.2622 59.7689H45.5163V50.5522L41.5337 46.0835V56.138H39.4001C35.9864 56.138 33.5683 55.7191 32.4304 54.7416C31.1502 53.9037 30.5813 52.3676 30.5813 50.1332C30.5813 48.0385 31.1502 46.6421 32.4304 45.8042C33.5683 44.9663 35.9864 44.5474 39.5423 44.5474H43.0983L56.4687 59.6292H61.0204L47.5077 44.4077H48.7878ZM45.5163 29.1862H47.6499C51.0637 29.1862 53.4817 29.6051 54.6196 30.5827C55.8998 31.4205 56.4687 32.9567 56.4687 35.191C56.4687 37.2857 55.8998 38.6822 54.6196 39.5201C53.4817 40.3579 51.0637 40.7769 47.5077 40.7769H45.5163V29.1862Z" fill="black"/>-->
<path d="M34.4217 6.42376L33.4261 1.11717L34.2795 0.977528L34.7062 3.21188L37.551 2.65329L37.1243 0.418941L37.9777 0.279294L39.1156 5.58588L38.1199 5.72552L37.6932 3.35153L34.8485 3.91011L35.2752 6.28411L34.4217 6.42376Z" fill="black"/>
<path d="M43.0983 3.77047C43.0983 3.49117 43.2405 3.07223 43.3828 2.93258C43.525 2.79294 43.9517 2.51364 44.2362 2.374C44.6629 2.23435 44.9474 2.23435 45.5163 2.23435C45.8008 2.23435 46.0853 2.23435 46.3698 2.374C46.6543 2.374 46.9387 2.51364 47.081 2.65329V2.23435C47.081 1.81541 46.9387 1.53612 46.7965 1.25682C46.512 0.977528 46.2275 0.837881 45.6586 0.837881C45.3741 0.837881 45.0896 0.837881 44.8052 0.977528C44.5207 1.11717 44.2362 1.25682 43.9517 1.39647L43.6672 0.698234C44.094 0.418941 44.3784 0.279294 44.8052 0.139647C45.2319 0 45.3741 0 45.8008 0C46.512 0 47.081 0.279294 47.5077 0.698234C47.9344 1.11717 48.0766 1.67576 48.0766 2.374L47.9344 4.60835C47.9344 4.74799 47.9344 4.74799 47.9344 4.88764C47.9344 5.02729 48.0766 5.02729 48.2189 5.02729V5.72552C48.0766 5.72552 48.0766 5.72552 47.9344 5.72552C47.7922 5.72552 47.7922 5.72552 47.7922 5.72552C47.5077 5.72552 47.3654 5.58588 47.3654 5.58588C47.2232 5.44623 47.2232 5.30658 47.2232 5.16693V4.88764C46.9387 5.16693 46.6543 5.44623 46.2275 5.58588C45.6586 5.58588 45.2319 5.58588 44.9474 5.58588C44.5207 5.58588 44.2362 5.44623 43.9517 5.30658C43.6672 5.16693 43.3828 4.88764 43.2405 4.60835C43.0983 4.4687 43.0983 4.18941 43.0983 3.77047ZM46.6543 4.32905C46.7965 4.32905 46.7965 4.18941 46.9387 4.04976V3.21188C46.6543 3.07223 46.512 3.07223 46.2275 2.93258C45.9431 2.93258 45.8008 2.79294 45.5163 2.79294C45.0896 2.79294 44.6629 2.79294 44.3784 3.07223C44.094 3.21188 43.9517 3.49117 43.9517 3.77047C43.9517 3.91011 43.9517 4.04976 44.094 4.32905C44.2362 4.4687 44.3784 4.60835 44.5207 4.74799C44.6629 4.88764 44.9474 4.88764 45.2319 4.88764C45.5163 4.88764 45.8008 4.88764 46.0853 4.74799C46.2275 4.74799 46.512 4.60835 46.6543 4.32905Z" fill="black"/>
<path d="M52.0593 6.28411L53.6239 1.11717L58.0333 2.374L56.4687 7.54093L55.6153 7.26164L56.8954 2.93258L54.3351 2.23435L53.055 6.70305L52.0593 6.28411Z" fill="black"/>
<path d="M60.4514 9.35634L63.2962 4.60835L64.0074 5.02729L61.8738 8.65811L66.7099 6.5634L67.4211 6.98234L64.5763 11.7303L63.7229 11.3114L65.8565 7.82022L61.1626 9.77528L60.4514 9.35634Z" fill="black"/>
<path d="M68.1323 14.244L72.115 10.4735L72.8262 11.1718L69.4124 14.3836L70.9771 15.9197L74.2485 12.5682L74.9597 13.2665L71.546 16.4783L73.1106 18.0144L76.5244 14.8026L77.2355 15.5008L73.2529 19.2713L68.1323 14.244Z" fill="black"/>
<path d="M75.5287 22.9021L80.2226 20.1091L80.6493 20.947L75.9554 23.74L75.5287 22.9021ZM81.2182 19.4109L82.2139 18.8523L82.6406 19.6902L81.645 20.2488L81.2182 19.4109Z" fill="black"/>
<path d="M78.6579 28.7673L83.0673 27.0915L82.3561 25.2761L83.0673 24.9968L84.7742 29.3258L84.063 29.6051L83.3518 27.9294L78.9424 29.6051L78.6579 28.7673Z" fill="black"/>
<path d="M80.507 34.9117L85.9121 34.0738L86.0543 35.0514L84.2052 35.3307L84.4897 36.7271C84.632 37.4254 84.4897 37.8443 84.2052 38.2632C83.9208 38.6822 83.494 38.8218 83.0673 38.9615C82.7829 38.9615 82.3561 38.9615 82.0717 38.9615C81.7872 38.8218 81.5027 38.6822 81.3605 38.4029C81.2182 38.1236 81.076 37.8443 80.9338 37.4254L80.507 34.9117ZM81.5027 35.7496L81.645 37.0064C81.645 37.2857 81.7872 37.4254 81.9294 37.565C82.0717 37.7047 82.2139 37.8443 82.3561 37.8443C82.4984 37.8443 82.7829 37.8443 82.9251 37.8443C83.0673 37.8443 83.3518 37.7047 83.494 37.7047C83.6363 37.565 83.7785 37.4254 83.7785 37.2857C83.9208 37.1461 83.9208 36.8668 83.7785 36.5875L83.6363 35.3307L81.5027 35.7496Z" fill="black"/>
<path d="M80.507 43.0112L81.5027 43.2905V43.0112H82.6406V43.8491H81.5027L80.507 43.5698V43.0112Z" fill="black"/>
<path d="M79.0846 55.0209C79.2269 54.4623 79.5114 54.183 79.7958 53.9037C80.0803 53.6244 80.507 53.4848 80.9338 53.3451V54.183C80.6493 54.183 80.507 54.3226 80.2226 54.4623C79.9381 54.6019 79.7958 54.8812 79.7958 55.1605C79.6536 55.5795 79.6536 55.8588 79.7958 56.138C79.9381 56.4173 80.0803 56.557 80.3648 56.6966C80.6493 56.8363 80.7915 56.8363 81.076 56.6966C81.3605 56.557 81.5027 56.4173 81.645 55.9984L81.7872 55.4398L82.3561 55.5795L82.2139 56.138C82.2139 56.2777 82.2139 56.4173 82.2139 56.557C82.2139 56.6966 82.3561 56.8363 82.3561 56.9759C82.4984 57.1156 82.6406 57.1156 82.7829 57.2552C83.0673 57.3949 83.2096 57.2552 83.494 57.2552C83.6363 57.1156 83.9208 56.9759 83.9208 56.557C83.9208 56.2777 83.9208 55.9984 83.9208 55.8587C83.9208 55.5795 83.7785 55.4398 83.6363 55.3002L84.2052 54.7416C84.4897 55.0209 84.632 55.3002 84.632 55.7191C84.632 56.138 84.632 56.557 84.4897 56.9759C84.3475 57.2552 84.2052 57.5345 84.063 57.8138C83.9208 58.0931 83.6363 58.2327 83.3518 58.2327C83.0673 58.2327 82.7829 58.2327 82.4984 58.2327C82.2139 58.0931 82.0717 57.9535 81.9294 57.8138C81.7872 57.6742 81.645 57.3949 81.645 57.1156C81.5027 57.3949 81.2182 57.5345 80.9338 57.6742C80.6493 57.8138 80.3648 57.8138 80.0803 57.6742C79.7958 57.5345 79.5114 57.3949 79.3691 57.1156C79.2269 56.8363 79.0846 56.557 79.0846 56.2777C79.0846 55.9984 78.9424 55.4398 79.0846 55.0209Z" fill="black"/>
<path d="M78.3735 61.0257C78.6579 61.1653 78.9424 61.4446 78.9424 61.7239C79.0846 62.0032 79.0846 62.4222 78.9424 62.7015C78.9424 63.1204 78.6579 63.3997 78.5157 63.8186C78.3735 63.9583 78.2312 64.2376 78.089 64.3772C77.9467 64.5169 77.6623 64.7962 77.52 64.9358L77.8045 65.2151C78.2312 65.4944 78.5157 65.4944 78.8002 65.3547C79.0847 65.2151 79.3691 65.0754 79.6536 64.6565C79.7958 64.3772 79.9381 64.0979 79.9381 63.8186C79.9381 63.5393 80.0803 63.26 79.9381 62.8411H80.6493C80.6493 63.26 80.6493 63.679 80.507 64.0979C80.3648 64.5169 80.2226 64.7962 80.0803 65.0754C79.6536 65.634 79.2269 66.053 78.6579 66.1926C78.089 66.3323 77.52 66.1926 76.9511 65.9133L74.9597 64.6565C74.8175 64.6565 74.8175 64.5169 74.6753 64.5169C74.533 64.5169 74.533 64.5169 74.533 64.6565L73.9641 64.2376C73.9641 64.0979 73.9641 64.0979 74.1063 63.9583C74.1063 63.9583 74.1063 63.8186 74.2485 63.8186C74.3908 63.679 74.533 63.5393 74.6753 63.5393C74.8175 63.5393 74.9597 63.5393 75.102 63.5393L75.3865 63.679C75.3865 63.5393 75.3865 63.26 75.3865 62.8411C75.3865 62.4222 75.5287 62.0032 75.8132 61.7239C75.9554 61.4446 76.2399 61.1653 76.5244 61.0257C76.8088 60.886 77.0933 60.7464 77.3778 60.7464C77.6623 60.7464 78.089 60.886 78.3735 61.0257ZM76.0976 63.8186C76.0976 63.9583 76.2399 64.0979 76.2399 64.0979C76.2399 64.2376 76.3821 64.2376 76.3821 64.2376L76.9511 64.6565C77.0933 64.5169 77.3778 64.3772 77.52 64.2376C77.6623 64.0979 77.8045 63.8186 77.9467 63.679C78.2312 63.26 78.3735 62.9807 78.3735 62.5618C78.3735 62.1429 78.2312 62.0032 77.9467 61.8636C77.8045 61.7239 77.6623 61.7239 77.3778 61.7239C77.2355 61.7239 76.9511 61.7239 76.8088 61.8636C76.6666 62.0032 76.3821 62.1429 76.2399 62.4222C76.0976 62.7014 75.9554 62.9807 75.9554 63.26C75.9554 63.5393 75.9554 63.5393 76.0976 63.8186Z" fill="black"/>
<path d="M70.8348 68.427L74.2485 71.6388L75.5287 70.2424L76.0976 70.801L72.6839 74.1525L72.115 73.5939L73.3951 72.1974L69.9814 68.9856L70.8348 68.427Z" fill="black"/>
<path d="M63.7229 74.0128C64.0074 73.7336 64.4341 73.5939 64.8608 73.5939C65.2875 73.5939 65.572 73.5939 65.9987 73.5939C66.2832 73.7336 66.7099 73.8732 66.9944 74.0128C67.2788 74.2921 67.5633 74.4318 67.7056 74.8507C67.99 75.2697 68.1323 75.6886 68.1323 76.2472C68.1323 76.8058 68.1323 77.2247 67.8478 77.6437C67.5633 78.0626 67.2788 78.4815 66.8521 78.7608C66.4254 79.0401 65.8565 79.1798 65.4297 79.1798C65.003 79.1798 64.4341 79.0401 64.0074 78.7608C63.5806 78.4815 63.2962 78.2023 63.0117 77.7833L62.8695 77.6437V77.504L66.7099 75.13C66.4254 74.8507 66.2832 74.5714 65.9987 74.4318C65.7142 74.2921 65.4297 74.2921 65.1453 74.2921C64.8608 74.2921 64.5763 74.4318 64.2918 74.5714C64.0074 74.7111 63.7229 74.9904 63.5806 75.2697C63.4384 75.549 63.2962 75.8283 63.4384 76.1075L62.585 76.3868C62.585 76.1076 62.585 75.8283 62.585 75.549C62.7272 75.2697 62.8695 74.9904 63.0117 74.7111C63.1539 74.4318 63.2962 74.1525 63.7229 74.0128ZM66.9944 75.549L63.7229 77.504C64.0074 77.7833 64.1496 78.0626 64.4341 78.0626C64.7186 78.2023 65.003 78.2022 65.2875 78.2022C65.572 78.2022 65.8565 78.0626 66.1409 77.923C66.4254 77.7833 66.5677 77.504 66.8521 77.2247C66.9944 76.9454 67.1366 76.6661 67.1366 76.3868C67.2788 76.2472 67.1366 75.9679 66.9944 75.549Z" fill="black"/>
<path d="M58.3178 76.9454L58.6023 77.7833C58.4601 77.7833 58.3178 77.923 58.1756 78.0626C58.0333 78.2023 58.0333 78.3419 58.0333 78.6212C58.0333 78.9005 58.0333 79.1798 58.0333 79.5987C58.0333 80.0177 58.1756 80.4366 58.4601 81.1348L58.8868 82.671L55.3308 83.9278L53.6239 78.7608L54.4774 78.4815L56.042 82.8106L57.8911 82.1124L57.6066 81.2745C57.3221 80.5762 57.3222 80.0177 57.1799 79.4591C57.1799 78.9005 57.1799 78.6212 57.1799 78.2022C57.3222 77.923 57.4644 77.6437 57.6066 77.3644C57.7489 77.2247 58.0333 77.0851 58.3178 76.9454Z" fill="black"/>
<path d="M46.7965 79.5987C47.2232 79.5987 47.6499 79.5987 47.9344 79.7384C48.2189 79.878 48.6456 80.0177 48.9301 80.297C49.2146 80.5762 49.3568 80.8555 49.6413 81.1348C49.7835 81.4141 49.9257 81.8331 49.9257 82.252C49.9257 82.8106 49.9257 83.2295 49.6413 83.6485C49.499 84.0674 49.0723 84.4864 48.7878 84.7657C48.5034 85.0449 47.9344 85.1846 47.3654 85.3242C46.7965 85.3242 46.3698 85.3242 45.8008 85.045C45.3741 84.7657 44.9474 84.4864 44.8052 84.0674C44.6629 83.6485 44.3784 83.2295 44.3784 82.8106V82.5313L48.9301 82.1124C48.9301 81.8331 48.7878 81.4141 48.5034 81.2745C48.2189 81.1348 48.0766 80.8555 47.7922 80.7159C47.5077 80.5762 47.2232 80.5762 46.9387 80.5762C46.6543 80.5762 46.2275 80.7159 45.9431 80.8555C45.6586 80.9952 45.5163 81.2745 45.3741 81.5538L44.5207 81.4141C44.6629 81.1348 44.8052 80.8555 44.9474 80.7159C45.2319 80.4366 45.3741 80.297 45.8008 80.1573C46.0853 79.7384 46.3698 79.5987 46.7965 79.5987ZM48.9301 82.5313L45.0896 82.8106C45.0896 83.0899 45.2319 83.5088 45.5163 83.6485C45.6586 83.9278 45.9431 84.0674 46.2275 84.2071C46.512 84.3467 46.7965 84.3467 47.2232 84.3467C47.5077 84.3467 47.7922 84.2071 48.0766 84.0674C48.3611 83.9278 48.5034 83.6485 48.6456 83.3692C48.9301 83.2295 48.9301 82.8106 48.9301 82.5313Z" fill="black"/>
<path d="M37.9777 77.2247L37.551 79.4591H37.6932C38.2622 79.5987 38.6889 79.7384 39.1156 80.0177C39.5423 80.297 39.6846 80.7159 39.8268 81.1348C39.969 81.5538 39.969 81.9727 39.969 82.5313C39.8268 82.9502 39.6846 83.5088 39.4001 83.7881C39.1156 84.2071 38.6889 84.4864 38.2622 84.626C37.8355 84.7656 37.2665 84.9053 36.8398 84.7657H36.6976L36.2708 87L35.2752 86.8604L35.7019 84.626H35.4174C34.8485 84.4864 34.4217 84.3467 33.995 84.0674C33.5683 83.7881 33.4261 83.3692 33.2838 82.9502C33.1416 82.5313 33.1416 82.1124 33.1416 81.5538C33.2838 81.1348 33.4261 80.7159 33.7105 80.297C33.995 79.878 34.4217 79.5987 34.8485 79.4591C35.2752 79.3194 35.8441 79.1798 36.4131 79.3194H36.6976L37.1243 77.0851L37.9777 77.2247ZM36.6976 80.0177H36.4131C36.1286 80.0177 35.7019 80.0177 35.4174 80.1573C35.1329 80.297 34.8485 80.4366 34.7062 80.7159C34.564 80.9952 34.4217 81.2745 34.2795 81.6934C34.2795 82.1124 34.2795 82.3917 34.2795 82.671C34.2795 82.9502 34.564 83.2295 34.8485 83.5088C35.1329 83.7881 35.4174 83.9278 35.7019 83.9278H35.9864L36.6976 80.0177ZM37.6932 80.1573H37.4087L36.6976 84.0674H36.982C37.2665 84.0674 37.6932 84.0674 37.9777 83.9278C38.2622 83.7881 38.5467 83.6485 38.6889 83.3692C38.8311 83.0899 38.9734 82.8106 39.1156 82.3917C39.2578 81.9727 39.1156 81.6934 39.1156 81.4141C38.9734 81.1348 38.8311 80.8555 38.5467 80.5762C38.4044 80.297 38.1199 80.1573 37.6932 80.1573Z" fill="black"/>
<path d="M27.8788 76.3868C28.3055 76.5265 28.59 76.8058 28.8744 77.0851C29.1589 77.3644 29.3011 77.6437 29.4434 78.0626C29.5856 78.3419 29.5856 78.7608 29.5856 79.1798C29.5856 79.5987 29.4434 79.878 29.3011 80.297C29.1589 80.5762 28.8744 80.9952 28.7322 81.1348C28.4477 81.4141 28.1632 81.5538 27.8788 81.6934C27.5943 81.8331 27.1676 81.8331 26.7409 81.8331C26.3141 81.8331 26.0297 81.6934 25.6029 81.5538C25.1762 81.4141 24.8918 81.1348 24.6073 80.8555C24.3228 80.5762 24.1806 80.297 24.0383 79.878C23.8961 79.5987 23.8961 79.1798 23.8961 78.7608C23.8961 78.3419 24.0383 78.0626 24.1806 77.6437C24.3228 77.3644 24.6073 76.9454 24.7495 76.8058C25.034 76.5265 25.3185 76.3868 25.6029 76.2472C25.8874 76.1075 26.3141 76.1075 26.7409 76.1075C27.1676 76.1075 27.5943 76.2472 27.8788 76.3868ZM28.4477 79.7384C28.59 79.4591 28.7322 79.0401 28.59 78.7608C28.4477 78.4815 28.4477 78.0626 28.3055 77.7833C28.1632 77.504 27.8788 77.3644 27.5943 77.2247C27.3098 77.0851 27.0253 77.0851 26.5986 77.0851C26.3141 77.0851 26.0297 77.2247 25.7452 77.504C25.4607 77.7833 25.1762 78.0626 25.034 78.3419C24.8918 78.6212 24.7495 79.0401 24.8918 79.3194C24.8918 79.5987 25.034 80.0177 25.1762 80.297C25.3185 80.5762 25.6029 80.7159 25.8874 80.8555C26.1719 80.9952 26.4564 80.9952 26.8831 80.9952C27.1676 80.9952 27.452 80.8555 27.7365 80.5762C28.021 80.297 28.3055 80.0177 28.4477 79.7384Z" fill="black"/>
<path d="M22.047 73.3146L18.6333 77.6437L17.9221 77.0851L19.3444 75.2697L17.0686 73.4543L15.6462 75.2697L14.9351 74.7111L18.3488 70.382L19.06 70.9406L17.4953 72.756L19.7712 74.5714L21.3358 72.756L22.047 73.3146Z" fill="black"/>
<path d="M16.6419 65.4944C16.7842 65.634 16.7842 65.634 16.7842 65.7737C16.7842 65.9133 16.9264 66.053 16.9264 66.1926L16.2152 66.3323C16.2152 66.1926 16.2152 66.1926 16.2152 66.1926C16.2152 66.1926 16.2152 66.053 16.073 66.053C15.9307 65.9133 15.7885 65.9133 15.6462 65.7737C15.3618 65.7737 15.2195 65.7737 14.7928 65.9133L14.0816 66.053L11.3791 71.3596L10.8101 70.6613L13.2282 66.4719L8.53432 67.8684L7.96536 67.1701L14.6506 65.2151C14.9351 65.0754 15.2195 65.0754 15.504 65.0754C15.7885 65.0754 15.9307 65.0754 16.2152 65.2151C16.3574 65.2151 16.4997 65.3547 16.6419 65.4944Z" fill="black"/>
<path d="M3.55596 61.0257C3.84044 61.4446 3.84044 61.8636 3.6982 62.1429C3.55596 62.4222 3.41373 62.7014 2.98701 62.8411L2.84477 62.2825C2.98701 62.1429 3.12925 62.0032 3.27149 61.8636C3.27149 61.7239 3.27149 61.4446 3.12925 61.1653C2.98701 60.886 2.84477 60.7464 2.70253 60.6067C2.56029 60.6067 2.41806 60.6067 2.13358 60.6067L1.8491 60.0482C2.13358 59.9085 2.56029 59.9085 2.84477 60.0482C3.12925 60.3274 3.41373 60.6067 3.55596 61.0257ZM10.2412 60.6067L5.26283 62.9807L4.83611 62.1429L8.67655 60.3274L3.41373 59.3499L2.98701 58.6517L7.96536 56.2777L8.53432 57.1156L4.69387 58.931L9.81446 59.9085L10.2412 60.6067Z" fill="black"/>
<path d="M6.54297 50.9711L1.99134 51.9486L2.41806 53.764L1.56462 53.9037L0.568954 49.2953L1.42239 49.1557L1.8491 50.9711L6.40074 49.9936L6.54297 50.9711Z" fill="black"/>
<path d="M5.68954 42.0337C5.68954 42.4527 5.5473 42.8716 5.40507 43.1509C5.26283 43.4302 4.97835 43.7095 4.83611 43.9888C4.55163 44.2681 4.26716 44.5474 3.98268 44.687C3.6982 44.8266 3.27149 44.8266 2.84477 44.8266C2.27582 44.8266 1.8491 44.687 1.42239 44.4077C0.99567 44.1284 0.711193 43.8491 0.426716 43.4302C0.142239 43.0112 0 42.4527 0 42.0337C0 41.4751 0.142239 41.0562 0.426716 40.6372C0.711193 40.2183 0.99567 39.939 1.42239 39.6597C1.8491 39.3804 2.27582 39.3804 2.84477 39.3804H3.12925L2.98701 43.8491C3.41373 43.8491 3.6982 43.7095 3.98268 43.5698C4.26716 43.4302 4.55163 43.1509 4.69387 42.8716C4.83611 42.5923 4.97835 42.313 4.97835 42.0337C4.97835 41.7544 4.83611 41.3355 4.69387 41.0562C4.55163 40.7769 4.26716 40.4976 3.98268 40.4976L4.26716 39.6597C4.55163 39.7994 4.83611 39.939 4.97835 40.2183C5.12059 40.4976 5.40507 40.7769 5.40507 41.0562C5.68954 41.3355 5.68954 41.7544 5.68954 42.0337ZM2.56029 43.8491V40.0787C2.13358 40.0787 1.8491 40.2183 1.56462 40.3579C1.28015 40.4976 1.13791 40.7769 0.853432 41.0562C0.711193 41.3355 0.568954 41.6148 0.568954 41.8941C0.568954 42.1734 0.568954 42.4527 0.853432 42.7319C0.99567 43.0112 1.28015 43.2905 1.42239 43.4302C1.8491 43.7095 2.13358 43.8491 2.56029 43.8491Z" fill="black"/>
<path d="M7.68088 30.1637L2.56029 28.069L2.98701 27.2311L5.12059 28.069L6.2585 25.4157L4.12492 24.5779L4.4094 23.74L9.52998 25.8347L9.10327 26.6726L6.82745 25.695L5.68954 28.3483L8.1076 29.3258L7.68088 30.1637Z" fill="black"/>
<path d="M10.2412 21.6453C9.9567 21.5056 9.81446 21.2263 9.67222 20.8074C9.52999 20.5281 9.52999 20.1091 9.67222 19.8299C9.81446 19.5506 9.9567 19.1316 10.2412 18.7127C10.3834 18.573 10.5257 18.2937 10.8101 18.1541C10.9524 18.0144 11.2368 17.7352 11.3791 17.7352L11.0946 17.4559C10.8101 17.1766 10.3834 17.1766 10.0989 17.1766C9.81446 17.1766 9.38775 17.4559 9.10327 17.8748C8.96103 18.1541 8.81879 18.4334 8.67655 18.7127C8.53432 18.8523 8.53432 19.2713 8.53432 19.5506L7.82312 19.4109C7.82312 18.992 7.96536 18.573 7.96536 18.2937C8.1076 17.8748 8.24984 17.5955 8.53432 17.3162C8.96103 16.7576 9.38775 16.4783 9.9567 16.3387C10.5257 16.199 11.0946 16.3387 11.6636 16.7576L13.5127 18.1541C13.6549 18.1541 13.6549 18.2937 13.7971 18.2937C13.7971 18.2937 13.9394 18.2937 13.9394 18.1541L14.5083 18.573C14.5083 18.7127 14.3661 18.7127 14.3661 18.7127C14.3661 18.7127 14.3661 18.8523 14.2239 18.8523C14.0816 18.992 13.9394 19.1316 13.7971 19.1316C13.6549 19.1316 13.5127 19.1316 13.3704 18.992L13.0859 18.8523C13.2282 19.2713 13.2282 19.5506 13.0859 19.9695C12.9437 20.3884 12.8015 20.6677 12.6592 21.0867C12.3748 21.366 12.2325 21.6453 11.948 21.7849C11.6636 21.9246 11.3791 21.9246 11.0946 21.9246C10.8101 21.9246 10.3834 21.7849 10.2412 21.6453ZM12.6592 18.992C12.6592 18.8523 12.6592 18.7127 12.517 18.7127C12.517 18.573 12.3748 18.573 12.3748 18.4334L11.8058 18.0144C11.6636 18.1541 11.3791 18.2937 11.2368 18.4334C11.0946 18.573 10.9524 18.7127 10.8101 18.992C10.5257 19.4109 10.3834 19.6902 10.3834 20.1091C10.3834 20.3884 10.5257 20.6677 10.6679 20.947C10.8101 21.0867 10.9524 21.0867 11.0946 21.0867C11.2368 21.0867 11.5213 21.0867 11.6636 20.947C11.8058 20.8074 12.0903 20.6677 12.2325 20.5281C12.3748 20.2488 12.517 20.1091 12.6592 19.8299C12.8015 19.5506 12.6592 19.2713 12.6592 18.992Z" fill="black"/>
<path d="M17.2109 15.6404L13.6549 11.451L14.3661 10.8925L18.2065 12.4286L17.4953 8.37881L18.491 7.68058L22.047 11.87L21.3358 12.4286L18.6333 9.21669L19.2022 12.8475L18.7755 13.2665L15.3618 12.0096L18.0643 15.2215L17.2109 15.6404Z" fill="black"/>
</svg>
