<svg width="19" height="19" viewBox="0 0 19 19" fill="none" xmlns="http://www.w3.org/2000/svg">
<path d="M16.7734 0H2.22656C0.998836 0 0 0.998836 0 2.22656V16.7734C0 18.0012 0.998836 19 2.22656 19H16.7734C18.0012 19 19 18.0012 19 16.7734V2.22656C19 0.998836 18.0012 0 16.7734 0ZM17.5156 16.7734C17.5156 17.1827 17.1827 17.5156 16.7734 17.5156H12.543V11.4668H14.836L15.2148 9.16602H12.543V7.57031C12.543 6.94038 13.0263 6.45703 13.6562 6.45703H15.1777V4.15625H13.6562C11.7665 4.15625 10.243 5.68701 10.243 7.57677V9.16602H8.01562V11.4668H10.243V17.5156H2.22656C1.81732 17.5156 1.48438 17.1827 1.48438 16.7734V2.22656C1.48438 1.81732 1.81732 1.48438 2.22656 1.48438H16.7734C17.1827 1.48438 17.5156 1.81732 17.5156 2.22656V16.7734Z" fill="black"/>
</svg>
