<svg width="28" height="25" viewBox="0 0 28 25" fill="none" xmlns="http://www.w3.org/2000/svg">
<path d="M14 11.3699C17.2249 11.3699 19.8392 8.82468 19.8392 5.68496C19.8392 2.54525 17.2249 0 14 0C10.775 0 8.16073 2.54525 8.16073 5.68496C8.16073 8.82468 10.775 11.3699 14 11.3699Z" fill="#FBD300"/>
<path d="M22.1608 25C25.3857 25 28 22.4548 28 19.315C28 16.1753 25.3857 13.6301 22.1608 13.6301C18.9358 13.6301 16.3215 16.1753 16.3215 19.315C16.3215 22.4548 18.9358 25 22.1608 25Z" fill="#FBD300"/>
<path d="M5.83925 25C9.06417 25 11.6785 22.4548 11.6785 19.315C11.6785 16.1753 9.06417 13.6301 5.83925 13.6301C2.61432 13.6301 0 16.1753 0 19.315C0 22.4548 2.61432 25 5.83925 25Z" fill="#FBD300"/>
</svg>
