<svg width="151" height="14" viewBox="0 0 151 14" fill="none" xmlns="http://www.w3.org/2000/svg">
<g clip-path="url(#clip0)">
<path d="M0 0.353516H7.11963C9.93561 0.353516 11.5296 2.0594 11.5296 4.88293C11.5296 7.70646 9.93561 9.47116 7.11963 9.47116H3.0285V13.6476H0V0.353516ZM3.0285 6.76528H5.79134C7.65095 6.76528 8.55419 6.41234 8.55419 4.94175C8.55419 3.41234 7.81035 3.11822 6.00387 3.11822H3.0285V6.76528Z" fill="black"/>
<path d="M16.5767 0.353516H19.4458L24.9715 13.6476H21.6242L20.5084 10.8241H15.1953L14.1326 13.6476H10.8916L16.5767 0.353516ZM19.4458 8.11822L17.8518 4.00057L16.2579 8.11822H19.4458Z" fill="black"/>
<path d="M35.8642 5.17647C35.4923 3.52941 34.2703 2.70588 32.2513 2.70588C29.8604 2.70588 28.3727 4.29412 28.3727 7C28.3727 9.70588 29.8604 11.2941 32.2513 11.2941C34.3765 11.2941 35.6517 10.2353 35.8642 8.52941H39.1584C38.8396 11.8235 36.183 14.0588 32.2513 14.0588C27.8414 14.0588 25.0254 11.2941 25.0254 7.05883C25.0254 2.82353 27.8414 0 32.3044 0C36.2362 0 38.8927 2.17647 39.1584 5.17647H35.8642Z" fill="black"/>
<path d="M44.259 5.47116L49.3065 0.353516H53.1851L47.8719 5.52999L53.8227 13.6476H50.1566L45.7998 7.52999L44.259 9.0594V13.6476H41.2305V0.353516H44.259V5.47116Z" fill="black"/>
<path d="M59.1884 0.353516H62.0575L67.5301 13.6476H64.1828L63.067 10.8241H57.7539L56.6912 13.6476H53.4502L59.1884 0.353516ZM62.0044 8.11822L60.4104 4.00057L58.8165 8.11822H62.0044Z" fill="black"/>
<path d="M78.3158 4.94118C77.7845 3.47059 76.6156 2.70588 74.8622 2.70588C72.4713 2.70588 70.9836 4.29412 70.9836 7C70.9836 9.70588 72.4713 11.2941 74.8622 11.2941C76.5624 11.2941 77.8376 10.4118 78.3689 9.11765H75.6592V6.41176H81.6099V13.7059H79.3253L79.1659 12.1765C78.0501 13.4118 76.5624 14 74.7028 14C70.6117 14 67.6895 11.2353 67.6895 7C67.6895 2.76471 70.4523 0 74.9154 0C78.7408 0 81.3443 2.11765 81.6631 4.94118H78.3158Z" fill="black"/>
<path d="M87.2424 13.6476H84.2139V0.353516H87.2424V13.6476Z" fill="black"/>
<path d="M93.7245 0.353516L99.7284 9.76528V0.353516H102.651V13.6476H98.9845L92.8744 4.17705V13.6476H89.9521V0.353516H93.7245Z" fill="black"/>
<path d="M115.295 4.94118C114.764 3.47059 113.595 2.70588 111.842 2.70588C109.451 2.70588 107.963 4.29412 107.963 7C107.963 9.70588 109.451 11.2941 111.842 11.2941C113.542 11.2941 114.817 10.4118 115.348 9.11765H112.639V6.41176H118.589V13.7059H116.305L116.145 12.1765C115.03 13.4118 113.542 14 111.682 14C107.591 14 104.669 11.2353 104.669 7C104.669 2.76471 107.432 0 111.895 0C115.72 0 118.324 2.11765 118.643 4.94118H115.295Z" fill="black"/>
<path d="M126.666 0.0585938C128.207 0.0585938 129.163 1.11742 129.163 2.76448C129.163 4.41153 128.207 5.47036 126.666 5.47036C125.125 5.47036 124.169 4.41153 124.169 2.76448C124.169 1.11742 125.072 0.0585938 126.666 0.0585938ZM126.666 4.76448C127.835 4.76448 128.526 3.99977 128.526 2.76448C128.526 1.52918 127.835 0.764476 126.666 0.764476C125.497 0.764476 124.807 1.52918 124.807 2.76448C124.807 3.99977 125.497 4.76448 126.666 4.76448Z" fill="#AFAFAF"/>
<path d="M133.52 0.235352V0.88241H130.651V2.353H133.202V3.00006H130.651V5.29418H130.014V0.235352H133.52Z" fill="#AFAFAF"/>
<path d="M139.843 0.235352V0.88241H138.089V5.29418H137.452V0.88241H135.698V0.235352H139.843Z" fill="#AFAFAF"/>
<path d="M141.012 2.23535H143.828V0.235352H144.465V5.29418H143.828V2.88241H141.012V5.29418H140.374V0.235352H141.012V2.23535Z" fill="#AFAFAF"/>
<path d="M145.528 0.235352H149.194V0.88241H146.165V2.353H148.981V3.00006H146.165V4.58829H149.194V5.29418H145.475V0.235352H145.528Z" fill="#AFAFAF"/>
<path d="M124.594 8.64746L125.869 13.118L127.144 8.64746H127.888L129.163 13.118L130.439 8.64746H131.129L129.588 13.7651H128.791L127.516 9.35334L126.241 13.7651H125.444L123.903 8.64746H124.594Z" fill="#AFAFAF"/>
<path d="M133.892 8.4707C135.433 8.4707 136.389 9.52953 136.389 11.1766C136.389 12.8236 135.433 13.8825 133.892 13.8825C132.351 13.8825 131.395 12.8236 131.395 11.1766C131.395 9.58835 132.351 8.4707 133.892 8.4707ZM133.892 13.1766C135.061 13.1766 135.751 12.4119 135.751 11.1766C135.751 9.94129 135.061 9.17659 133.892 9.17659C132.723 9.17659 132.032 9.94129 132.032 11.1766C132.032 12.4119 132.723 13.1766 133.892 13.1766Z" fill="#AFAFAF"/>
<path d="M137.239 8.64746H139.683C140.746 8.64746 141.33 9.11805 141.33 10.0592C141.33 10.7063 141.065 11.118 140.533 11.2945C141.012 11.4122 141.224 11.5886 141.277 12.5298C141.33 13.1769 141.33 13.5886 141.49 13.7651H140.746C140.693 13.5886 140.64 13.3533 140.64 12.8239C140.587 11.8239 140.427 11.5886 139.683 11.5886H137.983V13.7651H137.346V8.64746H137.239ZM137.877 10.9416H139.365C140.215 10.9416 140.587 10.7651 140.587 10.0592C140.587 9.35334 140.162 9.2357 139.311 9.2357H137.877V10.9416Z" fill="#AFAFAF"/>
<path d="M142.925 13.0585H145.741V13.7055H142.287V8.58789H142.925V13.0585Z" fill="#AFAFAF"/>
<path d="M146.325 8.64746H148.61C149.991 8.64746 151.001 9.35334 151.001 11.1769C151.001 13.118 149.938 13.7063 148.397 13.7063H146.378V8.64746H146.325ZM147.016 13.0592H148.61C149.779 13.0592 150.363 12.5298 150.363 11.1769C150.363 9.82393 149.779 9.29452 148.61 9.29452H147.016V13.0592Z" fill="#AFAFAF"/>
</g>
<defs>
<clipPath id="clip0">
<rect width="151" height="14" fill="white"/>
</clipPath>
</defs>
</svg>
