<svg width="163" height="42" viewBox="0 0 163 42" fill="none" xmlns="http://www.w3.org/2000/svg">
<path d="M24.2752 25.3834C26.9971 25.3834 28.9871 25.2373 30.2508 24.9535C31.5199 24.6669 32.6191 24.1847 33.5539 23.5123C34.7325 22.6746 35.6508 21.5172 36.3113 20.0513C36.9719 18.5825 37.3064 16.9594 37.3064 15.1738C37.3064 13.3881 36.9719 11.7567 36.3113 10.288C35.6508 8.82194 34.7325 7.66463 33.5539 6.82688C32.6191 6.17109 31.5117 5.69706 30.2398 5.4132C28.9625 5.12666 26.9779 4.98058 24.2752 4.98058H16.5563V18.1196L5.07374 4.98058L0 4.99165L14.5662 21.5944H13.064C10.3449 21.5944 8.35211 21.7432 7.0912 22.027C5.81937 22.3109 4.72019 22.7959 3.78549 23.4682C2.60952 24.306 1.68849 25.4634 1.0279 26.9293C0.367311 28.3953 0.0329332 30.0184 0.0329332 31.8068C0.0329332 33.5925 0.367311 35.2238 1.0279 36.6898C1.68849 38.1586 2.60952 39.3132 3.78549 40.1509C4.72019 40.8067 5.82754 41.2835 7.09946 41.5673C8.37679 41.8512 10.3613 42 13.064 42H20.8323V31.9942L16.5563 27.1084V37.9767H14.2921C10.6108 37.9767 8.09443 37.4945 6.76508 36.5355C5.43289 35.5765 4.76404 33.9122 4.76404 31.556C4.76404 29.346 5.41637 27.8001 6.71297 26.921C8.00948 26.031 10.5423 25.5901 14.2921 25.5901H18.0721L32.3943 41.9173L37.3503 41.9117L22.9074 25.3834H24.2752ZM20.8323 9.00389H23.0471C26.7285 9.00389 29.2448 9.48613 30.577 10.4451C31.9065 11.4012 32.5752 13.0684 32.5752 15.4245C32.5752 17.6346 31.9229 19.1777 30.6263 20.0595C29.3298 20.9468 26.7998 21.3878 23.0471 21.3878H20.8323V9.00389Z" fill="white"/>
<path d="M68.772 12.5357C68.772 7.87573 65.3286 4.98058 59.786 4.98058H51.4307C51.2902 4.98058 51.1763 5.09512 51.1763 5.23632V25.8679H55.8442V20.1262H59.786C65.3286 20.1262 68.772 17.2179 68.772 12.5357ZM59.5811 15.9832H55.8442V9.08911H59.5811C62.5603 9.08911 64.0706 10.2486 64.0706 12.5357C64.0706 14.8238 62.5603 15.9832 59.5811 15.9832Z" fill="white"/>
<path d="M88.2199 19.0118C90.7526 17.7516 92.1345 15.4813 92.1345 12.5357C92.1345 7.87573 88.6911 4.98058 83.1485 4.98058H75.1611C74.8174 4.98058 74.5388 5.26076 74.5388 5.60631V25.8679H79.2067V20.0573H83.1485C83.3384 20.0573 83.5274 20.0564 83.7103 20.0494L87.8639 25.8679H93.1173L88.2199 19.0118ZM82.9436 15.9832H79.2067V9.08911H82.9436C85.9229 9.08911 87.4331 10.2486 87.4331 12.5357C87.4331 14.8238 85.9229 15.9832 82.9436 15.9832Z" fill="white"/>
<path d="M107.572 4.70576C101.163 4.70576 96.3286 9.31358 96.3286 15.4247C96.3286 21.5349 101.163 26.1428 107.572 26.1428C113.982 26.1428 118.816 21.5349 118.816 15.4247C118.816 9.31358 113.982 4.70576 107.572 4.70576ZM107.572 21.8973C103.782 21.8973 101.031 19.1753 101.031 15.4247C101.031 11.6741 103.782 8.95133 107.572 8.95133C111.363 8.95133 114.112 11.6741 114.112 15.4247C114.112 19.1753 111.363 21.8973 107.572 21.8973Z" fill="white"/>
<path d="M124.343 25.8679H129.011V18.2006H138.69V14.092H129.011V9.08911H139.887V4.98058H124.343V25.8679Z" fill="white"/>
<path d="M149.671 4.98058H145.003V25.8679H149.671V4.98058Z" fill="white"/>
<path d="M58.141 39.1711C57.5294 39.8283 56.7977 40.1475 55.903 40.1475C54.1695 40.1475 52.9107 38.9149 52.9107 37.2169C52.9107 35.5189 54.1695 34.2849 55.903 34.2848C56.8065 34.2848 57.5389 34.5996 58.141 35.2466L58.3303 35.4501L59.5971 34.156L59.6451 34.1063L59.4842 33.9189C58.6492 32.9498 57.4282 32.4595 55.8571 32.4595C53.0199 32.4595 50.8809 34.5044 50.8809 37.2169C50.8809 39.9294 53.0199 41.9743 55.8571 41.9743C57.4173 41.9743 58.6382 41.4781 59.4842 40.4988L59.6466 40.3129L58.3303 38.9676L58.141 39.1711Z" fill="white"/>
<path d="M73.5166 35.9258C73.5166 33.8633 71.9907 32.5824 69.5342 32.5824L65.7192 32.5824V41.8513H67.7345L67.7345 39.2531H69.5342C69.6245 39.2531 69.7162 39.2531 69.8036 39.2487L71.6616 41.8513H73.9229L71.7482 38.8066C72.8898 38.2547 73.5166 37.2344 73.5166 35.9258ZM71.4861 35.9258C71.4861 37.2301 70.3744 37.5038 69.4417 37.5038L67.7345 37.5038V34.3463H69.4417C70.3744 34.3463 71.4861 34.6201 71.4861 35.9258Z" fill="white"/>
<path d="M82.0843 38.022L86.414 38.022V36.2727H82.0843V34.3463L86.9484 34.3463V32.5824L80.0691 32.5824V41.8513L87.1166 41.8513V40.0713L82.0843 40.0713V38.022Z" fill="white"/>
<path d="M97.8837 32.5824H96.0738L91.854 41.8513L93.8933 41.8513L94.8113 39.7756H99.1301L100.013 41.8074L100.033 41.8513H102.12L97.9543 32.739L97.8837 32.5824ZM98.3766 38.0571L95.5678 38.0571L96.978 34.8645L98.3766 38.0571Z" fill="white"/>
<path d="M105.664 34.3463L108.631 34.3463L108.63 41.8513H110.646V34.3463L113.613 34.3463V32.5824L105.664 32.5824V34.3463Z" fill="white"/>
<path d="M121.354 32.5824H119.339V41.8513H121.354V32.5824Z" fill="white"/>
<path d="M132.012 39.152L129.225 32.7434L129.156 32.5824H126.983L131.002 41.6932L131.073 41.8513H132.885L136.993 32.5824L134.913 32.5824L132.012 39.152Z" fill="white"/>
<path d="M144.651 38.0219H148.982V36.2727H144.651V34.3463H149.517V32.5824L142.637 32.5824V41.8513L149.684 41.8513V40.0713H144.651V38.0219Z" fill="white"/>
<path d="M159.295 0C157.179 0 155.568 1.65263 155.568 3.73613C155.568 5.8211 157.179 7.47226 159.274 7.47226C161.369 7.47226 163 5.8211 163 3.71547C163 1.60984 161.41 0 159.295 0ZM159.274 6.99713C157.442 6.99713 156.063 5.55697 156.063 3.73613C156.063 1.91676 157.442 0.478083 159.295 0.478083C161.148 0.478083 162.505 1.87397 162.505 3.71547C162.505 5.55697 161.105 6.99713 159.274 6.99713Z" fill="white"/>
<path d="M161.179 3.06032C161.179 2.18088 160.526 1.62018 159.474 1.62018H157.789V5.85209H158.505V4.49752H159.653L160.526 5.85209H161.253L160.295 4.36177C160.853 4.15962 161.179 3.70514 161.179 3.06032ZM159.421 3.90582H158.495V2.22368H159.421C160.095 2.22368 160.484 2.52026 160.484 3.06032C160.484 3.5989 160.095 3.90582 159.421 3.90582Z" fill="white"/>
</svg>
