<svg width="55" height="51" viewBox="0 0 55 51" fill="none" xmlns="http://www.w3.org/2000/svg">
<path d="M54.1905 31.1875H21.2285V50.7999H54.1905V31.1875Z" fill="#BFBFBF"/>
<path d="M29.4023 31.2509C29.434 31.2297 29.4763 31.2192 29.508 31.1981C29.4868 31.1981 29.4763 31.1981 29.4552 31.1875C29.434 31.2086 29.4235 31.2297 29.4023 31.2509Z" fill="#FEFEFE"/>
<path d="M30.2576 31.2725H29.4443C29.7295 31.3992 29.9935 31.3781 30.2576 31.2725Z" fill="#BFBFBF"/>
<path d="M21.2598 35.6758V36.0877C21.2914 35.9504 21.302 35.8131 21.2598 35.6758Z" fill="#BFBFBF"/>
<path d="M21.1227 35.8558C21.1227 35.8135 21.1227 35.7818 21.1227 35.7396C19.9926 36.331 18.8626 36.9224 17.6902 37.535C17.6902 32.455 17.6902 27.4172 17.6902 22.295C20.5101 24.2383 23.2878 26.1604 26.1076 28.1037C26.7519 26.9631 27.3961 25.833 28.0298 24.7135C28.1248 24.5551 28.1777 24.365 28.4417 24.5551C30.3427 25.907 32.2543 27.2588 34.2399 28.6635C32.624 29.5295 31.0609 30.3639 29.4978 31.1982C29.5718 31.2088 29.6457 31.2088 29.7196 31.2088C29.7935 31.2088 29.8675 31.1982 29.952 31.1982C30.0681 31.1876 30.1843 31.1876 30.2899 31.1982C30.3322 31.1982 30.3639 31.2088 30.4061 31.2088C30.4167 31.2088 30.4167 31.1982 30.4272 31.1982C30.4378 31.1982 30.4378 31.1876 30.4483 31.1876C31.7791 30.4695 33.0992 29.7407 34.4405 29.0437C34.7574 28.8747 34.8735 28.6846 34.8735 28.315C34.863 23.1821 34.863 18.0388 34.863 12.906C34.863 12.2512 34.863 12.2512 34.2821 12.5469C31.7368 13.8776 29.181 15.1978 26.6357 16.5496C26.2027 16.782 26.0126 16.6869 25.833 16.275C25.6535 15.842 25.4106 15.4301 25.1888 15.0077C23.0765 10.9099 20.9537 6.8015 18.8414 2.7037C18.3873 1.81655 17.9226 0.939959 17.4368 0C17.3417 0.147859 17.2889 0.221788 17.2361 0.31684C14.469 5.682 11.6914 11.0366 8.92433 16.4123C8.76591 16.708 8.68142 16.7925 8.35402 16.613C5.93547 15.3351 3.50637 14.0677 1.07726 12.8109C0.739294 12.6419 0.433015 12.399 0.031684 12.3251C0.0211227 12.4201 0.0105613 12.4941 0.0105613 12.5574C0.0105613 17.8487 0.0105613 23.1505 0 28.4417C0 28.7902 0.179543 28.8853 0.422454 29.0226C5.9566 32.0009 11.4907 34.9792 17.0143 37.9575C17.31 38.1159 17.5318 38.1159 17.8275 37.9469C18.947 37.3343 20.0771 36.7535 21.2072 36.162C21.2177 36.162 21.2177 36.1515 21.2283 36.1515C21.2177 36.1409 21.1966 36.1198 21.186 36.0987C21.1438 36.0459 21.1227 35.9508 21.1227 35.8558ZM34.43 13.603C34.43 18.4507 34.43 23.2983 34.43 28.2621C33.7012 27.7446 33.0464 27.2905 32.3916 26.8258C31.1665 25.9598 29.952 25.1043 28.7268 24.2383C28.5473 24.1115 28.41 24.0271 28.5684 23.7525C30.4695 20.4151 32.3705 17.0671 34.261 13.7192C34.2927 13.6664 34.3138 13.5924 34.43 13.603ZM17.6586 1.65813C17.6586 1.62645 17.6691 1.59476 17.7008 1.4469C18.0493 2.11227 18.3662 2.7037 18.6724 3.29514C21.0065 7.81539 23.3511 12.3356 25.6641 16.8665C25.8858 17.2889 26.0443 17.3523 26.4667 17.1199C28.8325 15.8526 31.2193 14.6275 33.6062 13.3812C33.7224 13.3179 33.8491 13.2545 34.092 13.1277C32.0431 16.7503 30.0681 20.2355 28.072 23.763C25.9175 22.2422 23.7736 20.7319 21.6402 19.2216C20.4151 18.3556 19.2005 17.5001 17.9754 16.6341C17.7853 16.4968 17.6374 16.3806 17.6374 16.0955C17.6586 11.3006 17.6586 6.4741 17.6586 1.65813ZM0.918837 13.2122C3.37963 14.5007 5.8193 15.7681 8.25897 17.046C8.91377 17.3945 8.91377 17.3945 9.24117 16.7714C11.8076 11.797 14.374 6.82263 16.951 1.84823C17.0143 1.7215 17.0882 1.60532 17.1727 1.45746C17.2995 1.5842 17.2467 1.7215 17.2467 1.84823C17.2467 6.54803 17.2467 11.2478 17.2572 15.9371C17.2572 16.2433 17.1939 16.4546 16.9298 16.6447C13.6664 18.9365 10.4029 21.2389 7.16059 23.5518C6.89655 23.7419 6.78038 23.7525 6.6114 23.4462C4.72092 20.1194 2.841 16.8031 0.971643 13.4974C0.929398 13.4235 0.855469 13.3495 0.918837 13.2122ZM0.464699 13.4868C1.13006 14.6697 1.73206 15.7258 2.33406 16.7925C3.61198 19.0527 4.87934 21.3233 6.18895 23.5729C6.42129 23.9637 6.3368 24.1115 5.99884 24.3439C4.17173 25.6112 2.35518 26.9103 0.464699 28.241C0.464699 23.3089 0.464699 18.4718 0.464699 13.4868ZM17.215 37.5773C11.6703 34.599 6.18895 31.6418 0.63368 28.6529C1.49971 28.0404 2.31293 27.4595 3.13672 26.8681C4.21397 26.1076 5.29123 25.3578 6.35793 24.5762C6.62196 24.3861 6.70645 24.4601 6.84375 24.7135C7.4035 25.7274 8.0055 26.7202 8.55469 27.7446C8.73423 28.0826 8.8504 28.0509 9.11444 27.8714C11.6703 26.0971 14.2261 24.3333 16.782 22.5696C16.9087 22.4851 17.0354 22.4112 17.215 22.295C17.215 27.3961 17.215 32.4444 17.215 37.5773ZM16.9932 21.8937C14.4479 23.6785 11.8815 25.4317 9.32566 27.206C9.01938 27.4172 8.8504 27.47 8.63918 27.0687C8.1956 26.1921 7.68866 25.3472 7.19227 24.4917C7.05498 24.2488 7.01273 24.1221 7.29789 23.9214C10.5508 21.6402 13.7931 19.3589 17.0249 17.0566C17.3206 16.8453 17.5213 16.8242 17.8275 17.046C21.0488 19.3378 24.2805 21.6085 27.5123 23.9003C27.6285 23.9848 27.808 24.0376 27.808 24.2383C27.7658 24.3122 27.7235 24.3861 27.6813 24.4601C27.1743 25.3472 26.6568 26.2238 26.1816 27.1215C26.0126 27.4278 25.8964 27.4489 25.6112 27.2483C23.0343 25.4528 20.4362 23.6785 17.8592 21.8725C17.5213 21.6402 17.31 21.6719 16.9932 21.8937Z" fill="black"/>
<path d="M29.9621 31.1984C29.8882 31.1984 29.8142 31.2089 29.7297 31.2089C29.6558 31.2089 29.5819 31.2089 29.508 31.1984C29.4763 31.2195 29.434 31.23 29.4023 31.2512C29.4129 31.2617 29.434 31.2617 29.4446 31.2723H30.2578C30.3106 31.2512 30.3634 31.23 30.4057 31.2089C30.3634 31.1984 30.3317 31.1984 30.2895 31.1984C30.1944 31.1878 30.0783 31.1878 29.9621 31.1984Z" fill="black"/>
<path d="M21.123 35.7499C21.123 35.7921 21.123 35.8238 21.123 35.8661C21.123 35.9611 21.1442 36.0456 21.197 36.1301C21.2075 36.1512 21.2181 36.1618 21.2392 36.1829C21.2498 36.1512 21.2603 36.1301 21.2603 36.0984V35.6865C21.2075 35.6971 21.1653 35.7288 21.123 35.7499Z" fill="black"/>
<path d="M21.2288 36.1729C21.2182 36.1624 21.1971 36.1412 21.1865 36.1201C21.2076 36.1412 21.2182 36.1624 21.2288 36.1729Z" fill="black"/>
<path d="M25.6747 35.8034C25.6747 35.9302 25.6535 36.0358 25.6113 36.1308C25.569 36.2259 25.5162 36.2998 25.4529 36.3526C25.3895 36.4054 25.305 36.4477 25.2205 36.4793C25.136 36.511 25.041 36.5216 24.9459 36.5216C24.8509 36.5216 24.7558 36.511 24.6713 36.4793C24.5868 36.4477 24.5024 36.4054 24.439 36.3526C24.3756 36.2998 24.3228 36.2153 24.2806 36.1308C24.2383 36.0358 24.2172 35.9302 24.2172 35.8034V33.7334H23.7842V35.8774C23.7842 36.0358 23.8159 36.1836 23.8792 36.3104C23.9426 36.4371 24.0271 36.5427 24.1327 36.6378C24.2383 36.7223 24.3651 36.7962 24.5023 36.8384C24.6396 36.8807 24.7981 36.9018 24.9565 36.9018C25.1149 36.9018 25.2628 36.8807 25.4001 36.8384C25.5374 36.7962 25.6641 36.7223 25.7697 36.6378C25.8753 36.5533 25.9598 36.4371 26.0232 36.3104C26.0866 36.1836 26.1182 36.0358 26.1182 35.8774V33.7334H25.6747V35.8034Z" fill="black"/>
<path d="M27.0055 36.0041L27.5758 35.3176L28.484 36.8701H28.9699L27.8609 34.9691L28.8643 33.7334H28.3573L27.0371 35.3598H27.0055V33.7334H26.583V36.8701H27.0055V36.0041Z" fill="black"/>
<path d="M29.6031 35.6024H30.4163L30.9444 36.8592H31.4091L30.8177 35.5179C30.9022 35.4862 30.9867 35.4334 31.05 35.37C31.1134 35.3067 31.1768 35.2433 31.2296 35.1588C31.2824 35.0849 31.3141 35.0004 31.3352 34.9159C31.3563 34.8314 31.3669 34.7469 31.3669 34.6519C31.3669 34.5357 31.3457 34.4301 31.3141 34.3139C31.2824 34.2083 31.2296 34.1027 31.1556 34.0182C31.0817 33.9337 30.9867 33.8598 30.881 33.7964C30.7649 33.7436 30.6381 33.7119 30.4797 33.7119H29.1807V36.8698H29.6031V35.6024ZM29.6031 34.1132H30.3952C30.5642 34.1132 30.6909 34.166 30.7965 34.2611C30.9022 34.3562 30.955 34.4935 30.955 34.6624C30.955 34.8314 30.9022 34.9687 30.7965 35.0638C30.6909 35.1588 30.5536 35.2116 30.3952 35.2116H29.6031V34.1132Z" fill="black"/>
<path d="M32.2648 36.1625H33.511L33.7539 36.8701H34.1975L33.0991 33.7334H32.6767L31.5889 36.8701H32.0219L32.2648 36.1625ZM32.6556 35.0324L32.8879 34.3037H32.909L33.1414 35.0324L33.3949 35.7823H32.4127L32.6556 35.0324Z" fill="black"/>
<path d="M35.0318 33.7334H34.6094V36.8701H35.0318V33.7334Z" fill="black"/>
<path d="M36.0885 34.5466H36.1202L36.5637 35.2331L37.6621 36.8701H38.0634V33.7334H37.6515V36.078H37.6199L37.1974 35.4338L36.0673 33.7334H35.666V36.8701H36.0885V34.5466Z" fill="black"/>
<path d="M39.1187 33.7334H38.6963V36.8701H39.1187V33.7334Z" fill="black"/>
<path d="M41.0628 33.7334H40.6404L39.542 36.8701H39.975L40.2179 36.1625H41.4642L41.7071 36.8701H42.1506L41.0628 33.7334ZM40.3552 35.7823L40.6087 35.0324L40.841 34.3037H40.8622L41.348 35.7823H40.3552Z" fill="black"/>
<path d="M44.4523 36.078H44.4206L43.9982 35.4338L42.8681 33.7334H42.4668V36.8701H42.8893V34.5466H42.9209L43.3645 35.2331L44.4629 36.8701H44.8642V33.7334H44.4523V36.078Z" fill="black"/>
<path d="M25.749 37.8625C25.6539 37.778 25.5377 37.7041 25.411 37.6618C25.2843 37.6196 25.1364 37.5879 24.9885 37.5879H23.8057V40.7246H24.978C25.1258 40.7246 25.2631 40.7035 25.4004 40.6507C25.5272 40.5979 25.6433 40.5345 25.7384 40.4395C25.8334 40.355 25.9074 40.2388 25.9707 40.1121C26.0235 39.9853 26.0552 39.848 26.0552 39.7002V38.6123C26.0552 38.4539 26.0235 38.3166 25.9707 38.1793C25.9179 38.0632 25.844 37.9575 25.749 37.8625ZM25.6328 39.6474C25.6328 39.7846 25.6117 39.8903 25.5694 39.9853C25.5272 40.0698 25.4638 40.1437 25.4004 40.2071C25.3265 40.2599 25.2526 40.3022 25.1575 40.3338C25.073 40.355 24.978 40.3655 24.8935 40.3655H24.2281V37.9787H24.8935C24.9885 37.9787 25.073 37.9892 25.1681 38.0103C25.2526 38.0315 25.3371 38.0737 25.411 38.1371C25.4849 38.1899 25.5377 38.2744 25.58 38.3589C25.6222 38.4539 25.6433 38.5595 25.6433 38.6968V39.6474H25.6328Z" fill="black"/>
<path d="M26.5723 40.7352H28.674V40.355H26.9947V39.3516H28.4311V38.9714H26.9947V37.9787H28.674V37.5879H26.5723V40.7352Z" fill="black"/>
<path d="M30.9028 39.1931C30.8078 39.1297 30.6916 39.0769 30.5754 39.0347C30.4487 38.9924 30.3219 38.9608 30.1952 38.9291C30.1213 38.9185 30.0473 38.8974 29.9629 38.8763C29.8784 38.8551 29.8044 38.8235 29.7305 38.7918C29.6566 38.7601 29.6038 38.7073 29.5615 38.6545C29.5193 38.6017 29.4982 38.5277 29.4982 38.4432C29.4982 38.3588 29.5193 38.2743 29.551 38.2109C29.5826 38.1475 29.6249 38.0842 29.6777 38.0419C29.7305 37.9997 29.7939 37.968 29.8678 37.9469C29.9417 37.9257 30.0157 37.9152 30.1002 37.9152C30.2374 37.9152 30.3747 37.9363 30.5226 37.968C30.6705 37.9997 30.8078 38.0525 30.9345 38.137L31.1352 37.7779C30.9767 37.6828 30.8078 37.6195 30.6388 37.5772C30.4698 37.5455 30.2903 37.5244 30.1107 37.5244C29.9523 37.5244 29.815 37.5455 29.6883 37.5878C29.5615 37.63 29.4559 37.6934 29.3714 37.7779C29.2869 37.8518 29.213 37.9469 29.1708 38.063C29.1285 38.1687 29.0968 38.2954 29.0968 38.4221C29.0968 38.57 29.1285 38.6862 29.1813 38.7918C29.2341 38.8868 29.3081 38.9713 29.3925 39.0347C29.477 39.0981 29.5826 39.1509 29.6988 39.1931C29.815 39.2353 29.9312 39.267 30.0579 39.2882C30.1424 39.3093 30.2269 39.3304 30.3219 39.3515C30.4064 39.3726 30.4909 39.4043 30.5649 39.4466C30.6388 39.4888 30.7021 39.5416 30.7444 39.605C30.7866 39.6684 30.8183 39.7529 30.8183 39.8585C30.8183 40.0274 30.755 40.1542 30.6388 40.2387C30.5226 40.3337 30.3536 40.376 30.1424 40.376C29.9734 40.376 29.815 40.3443 29.6671 40.2915C29.5087 40.2387 29.3609 40.1647 29.2236 40.0591L28.9912 40.3549C29.1708 40.4921 29.3503 40.5872 29.5404 40.6506C29.7305 40.7139 29.9312 40.7456 30.153 40.7456C30.3219 40.7456 30.4698 40.7245 30.6071 40.6823C30.7444 40.64 30.8606 40.5872 30.9556 40.5027C31.0507 40.4288 31.1352 40.3337 31.188 40.2176C31.2408 40.1119 31.2725 39.9852 31.2725 39.8373C31.2725 39.6684 31.2408 39.5311 31.188 39.4255C31.0824 39.341 30.9979 39.2565 30.9028 39.1931Z" fill="black"/>
<path d="M32.1598 37.5879H31.7373V40.7246H32.1598V37.5879Z" fill="black"/>
<path d="M34.0177 39.4572H34.5141V40.186C34.3979 40.2705 34.2923 40.3233 34.1867 40.3444C34.0811 40.3655 33.986 40.3761 33.9227 40.3761C33.8276 40.3761 33.7431 40.3655 33.6481 40.3338C33.5636 40.3022 33.4791 40.2599 33.4157 40.2071C33.3524 40.1543 33.289 40.0698 33.2573 39.9853C33.2151 39.8903 33.1939 39.7847 33.1939 39.6579V38.6757C33.1939 38.549 33.2151 38.4328 33.2573 38.3483C33.2995 38.2533 33.3629 38.1793 33.4368 38.1265C33.5108 38.0737 33.5953 38.0315 33.6798 37.9998C33.7748 37.9681 33.8699 37.9575 33.9649 37.9575C34.0811 37.9575 34.2078 37.9787 34.324 38.0209C34.4507 38.0632 34.5458 38.116 34.6303 38.1899L34.8415 37.8625C34.7253 37.7674 34.588 37.6935 34.4402 37.6513C34.2923 37.609 34.1339 37.5879 33.9649 37.5879C33.8065 37.5879 33.6481 37.609 33.5108 37.6618C33.3629 37.7041 33.2362 37.778 33.1306 37.8625C33.025 37.947 32.9299 38.0632 32.8665 38.1899C32.8032 38.3166 32.7715 38.4539 32.7715 38.6123V39.7635C32.7715 39.9219 32.8032 40.0698 32.8665 40.1965C32.9299 40.3233 33.0144 40.4289 33.12 40.5239C33.2256 40.6084 33.3524 40.6824 33.4897 40.7246C33.627 40.7669 33.7748 40.7985 33.9227 40.7985C34.0072 40.7985 34.0917 40.788 34.1867 40.7774C34.2818 40.7669 34.3662 40.7352 34.4613 40.7035C34.5458 40.6718 34.6408 40.6296 34.7148 40.5768C34.7993 40.5239 34.8732 40.4606 34.9366 40.3866V39.1087H34.0177V39.4572Z" fill="black"/>
<path d="M37.8203 37.5879H37.4084V39.9431H37.3767L36.9542 39.2883L35.8242 37.5879H35.4229V40.7352H35.8453V38.4011H35.877L36.3206 39.0876L37.4189 40.7352H37.8203V37.5879Z" fill="black"/>
<path d="M24.5235 44.4951H24.9565V41.7386H25.8542V41.3584H23.6152V41.7386H24.5235V44.4951Z" fill="black"/>
<path d="M26.5828 43.101H28.0614V44.4951H28.4838V41.3584H28.0614V42.7102H26.5828V41.3584H26.1709V44.4951H26.5828V43.101Z" fill="black"/>
<path d="M31.1029 41.7386V41.3584H29.0117V44.4951H31.1029V44.1149H29.4236V43.1116H30.86V42.7314H29.4236V41.7386H31.1029Z" fill="black"/>
<path d="M33.976 42.7736L33.6591 43.8509H33.6275L33.3212 42.8264L32.867 41.3584H32.4023L33.4162 44.4951H33.8704L34.8843 41.3584H34.4196L33.976 42.7736Z" fill="black"/>
<path d="M37.3031 44.1149H35.6344V43.1116H37.0601V42.7314H35.6344V41.7386H37.3031V41.3584H35.2119V44.4951H37.3031V44.1149Z" fill="black"/>
<path d="M41.6536 42.0766L41.3157 42.837H41.284L40.9566 42.1083L40.587 41.3584H40.1328L41.0833 43.2911V44.4951H41.5163V43.2911L42.4669 41.3584H42.0127L41.6536 42.0766Z" fill="black"/>
<path d="M25.6115 46.66C25.7593 46.5861 25.8544 46.4805 25.9072 46.3643C25.96 46.2482 25.9917 46.1214 25.9917 45.9947C25.9917 45.8891 25.9706 45.7835 25.9283 45.6778C25.8861 45.5828 25.8333 45.4877 25.7593 45.4138C25.6854 45.3399 25.5904 45.2765 25.4742 45.2343C25.3686 45.192 25.2418 45.1709 25.094 45.1709H23.7949V48.3076H25.1468C25.2946 48.3076 25.4214 48.2759 25.5375 48.2231C25.6537 48.1703 25.7382 48.0964 25.8227 48.0119C25.8966 47.9274 25.9494 47.8324 25.9917 47.7162C26.0339 47.6106 26.0445 47.4944 26.0445 47.3888C26.0445 47.2515 26.0128 47.1142 25.9389 46.9874C25.8755 46.8501 25.7593 46.7445 25.6115 46.66ZM24.2279 45.5511H25.02C25.1785 45.5511 25.3158 45.5828 25.4214 45.6567C25.527 45.7307 25.5798 45.8468 25.5798 46.0052C25.5798 46.0792 25.5692 46.1531 25.5375 46.2059C25.5059 46.2693 25.4742 46.3115 25.4214 46.3538C25.3686 46.396 25.3158 46.4277 25.2524 46.4383C25.189 46.4594 25.1257 46.4699 25.0517 46.4699H24.2174V45.5511H24.2279ZM25.4953 47.7901C25.4002 47.8852 25.2629 47.9274 25.0728 47.9274H24.2279V46.8502H25.0623C25.1362 46.8502 25.2101 46.8607 25.2735 46.8818C25.3369 46.903 25.4002 46.9452 25.4531 46.9874C25.5059 47.0297 25.5481 47.0931 25.5798 47.1564C25.6115 47.2198 25.6326 47.2937 25.6326 47.3782C25.6432 47.5578 25.5904 47.6951 25.4953 47.7901Z" fill="black"/>
<path d="M26.5195 48.3076H28.6212V47.9274H26.942V46.9241H28.3783V46.5439H26.942V45.5511H28.6212V45.1709H26.5195V48.3076Z" fill="black"/>
<path d="M30.8501 46.7654C30.755 46.702 30.6389 46.6492 30.5227 46.607C30.3959 46.5647 30.2692 46.533 30.1425 46.5013C30.0685 46.4908 29.9946 46.4697 29.9101 46.4485C29.8256 46.4274 29.7517 46.3957 29.6778 46.364C29.6038 46.3324 29.551 46.2796 29.5088 46.2267C29.4665 46.1739 29.4454 46.1 29.4454 46.0155C29.4454 45.931 29.4665 45.8465 29.4982 45.7832C29.5299 45.7198 29.5722 45.6564 29.625 45.6142C29.6778 45.5719 29.7411 45.5403 29.8151 45.5191C29.889 45.498 29.9629 45.4875 30.0474 45.4875C30.1847 45.4875 30.322 45.5086 30.4699 45.5403C30.6177 45.5719 30.755 45.6247 30.8818 45.7092L31.0824 45.3502C30.924 45.2551 30.755 45.1917 30.586 45.1495C30.4171 45.1178 30.2375 45.0967 30.058 45.0967C29.8996 45.0967 29.7623 45.1178 29.6355 45.16C29.5088 45.2023 29.4032 45.2657 29.3187 45.3502C29.2342 45.4241 29.1603 45.5191 29.118 45.6353C29.0758 45.7409 29.0441 45.8677 29.0441 45.9944C29.0441 46.1423 29.0758 46.2584 29.1286 46.364C29.1814 46.4591 29.2553 46.5436 29.3398 46.607C29.4243 46.6703 29.5299 46.7231 29.6461 46.7654C29.7623 46.8076 29.8784 46.8393 30.0052 46.8604C30.0897 46.8815 30.1742 46.9027 30.2692 46.9238C30.3537 46.9449 30.4382 46.9766 30.5121 47.0188C30.586 47.0611 30.6494 47.1139 30.6917 47.1773C30.7339 47.2406 30.7656 47.3251 30.7656 47.4307C30.7656 47.5997 30.7022 47.7265 30.586 47.8109C30.4699 47.8954 30.3009 47.9482 30.0897 47.9482C29.9207 47.9482 29.7623 47.9166 29.6144 47.8638C29.456 47.8109 29.3081 47.737 29.1708 47.6314L28.9385 47.9271C29.118 48.0644 29.2976 48.1595 29.4877 48.2228C29.6778 48.2862 29.8784 48.3179 30.1002 48.3179C30.2692 48.3179 30.4171 48.2968 30.5544 48.2545C30.6917 48.2123 30.8078 48.1595 30.9029 48.075C30.9979 48.001 31.0824 47.906 31.1352 47.7898C31.188 47.6842 31.2197 47.5575 31.2197 47.4096C31.2197 47.2406 31.188 47.1033 31.1352 46.9977C31.0296 46.9238 30.9451 46.8393 30.8501 46.7654Z" fill="black"/>
<path d="M31.3887 45.5511H32.2969V48.3076H32.7194V45.5511H33.6171V45.1709H31.3887V45.5511Z" fill="black"/>
<path d="M37.0178 45.4346C36.9121 45.3395 36.796 45.2656 36.6481 45.2233C36.5003 45.1705 36.3524 45.1494 36.1834 45.1494C36.0144 45.1494 35.856 45.1705 35.7187 45.2233C35.5709 45.2762 35.4547 45.3501 35.3491 45.4346C35.2435 45.5296 35.1695 45.6352 35.1167 45.7725C35.0639 45.8993 35.0322 46.0471 35.0322 46.2055V47.2934C35.0322 47.4518 35.0639 47.5996 35.1167 47.7264C35.1695 47.8531 35.254 47.9693 35.3491 48.0538C35.4441 48.1383 35.5709 48.2122 35.7187 48.265C35.8666 48.3178 36.0144 48.3389 36.1834 48.3389C36.3524 48.3389 36.5003 48.3178 36.6375 48.265C36.7748 48.2122 36.9016 48.1488 37.0072 48.0538C37.1128 47.9587 37.1973 47.8531 37.2501 47.7264C37.3135 47.5996 37.3346 47.4518 37.3346 47.2934V46.2055C37.3346 46.0471 37.3029 45.8993 37.2501 45.7725C37.1973 45.6352 37.1128 45.5191 37.0178 45.4346ZM36.9121 47.23C36.9121 47.3567 36.891 47.4623 36.8488 47.5574C36.8065 47.6525 36.7537 47.7264 36.6904 47.7792C36.627 47.832 36.5425 47.8742 36.458 47.9059C36.3735 47.9376 36.2785 47.9482 36.1729 47.9482C36.0778 47.9482 35.9827 47.9376 35.8983 47.9059C35.8138 47.8742 35.7293 47.832 35.6659 47.7792C35.6025 47.7264 35.5497 47.6419 35.5075 47.5574C35.4652 47.4623 35.4441 47.3567 35.4441 47.23V46.2478C35.4441 46.1211 35.4652 46.0154 35.5075 45.9204C35.5497 45.8253 35.6025 45.7514 35.6659 45.6986C35.7293 45.6352 35.8032 45.593 35.8983 45.5719C35.9827 45.5402 36.0778 45.5296 36.1834 45.5296C36.289 45.5296 36.3735 45.5402 36.4686 45.5719C36.5531 45.6036 36.6375 45.6458 36.7009 45.6986C36.7643 45.762 36.8171 45.8359 36.8593 45.9204C36.9016 46.0154 36.9227 46.1211 36.9227 46.2478V47.23H36.9121Z" fill="black"/>
<path d="M37.8516 48.3076H38.274V46.9241H39.6998V46.5439H38.274V45.5511H39.9427V45.1709H37.8516V48.3076Z" fill="black"/>
<path d="M39.5308 43.9246C39.4357 43.8613 39.3829 43.7979 39.2456 43.5972L39.2245 43.5655C39.1611 43.481 39.0872 43.3649 38.9922 43.2276C39.2667 43.2065 39.4885 43.1114 39.6047 43.0058C39.7103 42.9213 39.7843 42.7946 39.7843 42.7946C39.8371 42.7206 39.8687 42.6361 39.8899 42.5516C39.911 42.4672 39.9215 42.3827 39.9215 42.2876C39.9215 42.1714 39.9004 42.0658 39.8687 41.9497C39.8371 41.844 39.7842 41.7384 39.7103 41.6539C39.6364 41.5694 39.5413 41.4955 39.4357 41.4321C39.3196 41.3793 39.1928 41.3477 39.0344 41.3477H37.7354V44.4844H38.1578V43.2276C38.2634 43.2276 38.3796 43.2276 38.4852 43.2276C38.6542 43.4705 38.802 43.6712 38.8865 43.7979L38.9077 43.8296C39.0555 44.0408 39.14 44.1675 39.3196 44.2837C39.4885 44.3893 39.6892 44.4421 39.911 44.4421C39.9321 44.4421 39.9427 44.4421 39.9638 44.4421L39.9532 44.0197C39.7843 44.0302 39.6364 43.9986 39.5308 43.9246ZM38.1472 42.8474V41.7384H38.9393C39.1083 41.7384 39.2351 41.7912 39.3407 41.8863C39.4463 41.9813 39.4991 42.1186 39.4991 42.2876C39.4991 42.4566 39.4463 42.5939 39.3407 42.6889C39.2351 42.784 39.0978 42.8368 38.9393 42.8368H38.1472V42.8474Z" fill="black"/>
</svg>
