<svg version="1.1" id="Layer_1" xmlns="http://www.w3.org/2000/svg" x="0" y="0" viewBox="0 0 40 40" xml:space="preserve"><style type="text/css">.st0{fill:#fff}</style><path class="st0" d="M21 0h-2C12.5.5 7.6 5.9 7.6 12.3v15.2C7.6 34.4 13.1 40 20 40s12.4-5.6 12.4-12.4V12.3C32.4 5.9 27.5.5 21 0zm9.4 27.6C30.4 33.3 25.7 38 20 38S9.6 33.3 9.6 27.6V12.3C9.6 6.6 14.3 2 20 2s10.4 4.7 10.4 10.4v15.2z"/><path class="st0" d="M20 10.6c-.9 0-1.7.7-1.7 1.7v4.3c0 .9.7 1.7 1.7 1.7.9 0 1.7-.7 1.7-1.7v-4.3c0-1-.8-1.7-1.7-1.7z"/></svg>