<svg width="21" height="22" viewBox="0 0 21 22" fill="none" xmlns="http://www.w3.org/2000/svg">
<path d="M20.8802 5.95362L15.2026 0.12968C15.1218 0.0468359 15.0103 0 14.8938 0H6.43177C5.48476 0 4.71429 0.760289 4.71429 1.69477V7.6154H1.28495C0.576425 7.6154 0 8.18426 0 8.88353V15.2319C-4.35267e-08 15.9311 0.576425 16.5 1.28495 16.5H4.71429V20.3082C4.71429 21.241 5.48476 22 6.43177 22H19.2825C20.2295 22 21 21.2415 21 20.3091V6.24701C21 6.13761 20.957 6.03247 20.8802 5.95362ZM15 1.14215L19.6608 5.92307H15V1.14215ZM1.28495 15.6539C1.04904 15.6539 0.857172 15.4646 0.857172 15.2319V8.88353C0.857172 8.65086 1.04908 8.46154 1.28495 8.46154H12.8579C13.0938 8.46154 13.2857 8.65086 13.2857 8.88353V15.2319C13.2857 15.4646 13.0938 15.6539 12.8579 15.6539H1.28495ZM20.1428 20.3091C20.1428 20.7749 19.7569 21.1539 19.2825 21.1539H6.43177C5.95738 21.1539 5.57142 20.7745 5.57142 20.3082V16.5H12.8579C13.5665 16.5 14.1429 15.9311 14.1429 15.2319V8.88353C14.1429 8.18426 13.5665 7.6154 12.8579 7.6154H5.57142V1.69477C5.57142 1.2268 5.95738 0.846141 6.43177 0.846141H14.1428V6.34614C14.1428 6.57981 14.3348 6.76921 14.5714 6.76921H20.1428L20.1428 20.3091Z" fill="black"/>
<path d="M5.12362 10.7376C4.98133 10.555 4.8047 10.4364 4.59377 10.3819C4.45648 10.3455 4.16185 10.3273 3.70983 10.3273H2.51702V13.9615H3.26033V12.5906H3.745C4.0815 12.5906 4.33848 12.5733 4.51594 12.5386C4.64652 12.5105 4.77501 12.4531 4.90141 12.3663C5.02782 12.2795 5.13202 12.1601 5.21407 12.0081C5.29612 11.856 5.33712 11.6684 5.33712 11.4454C5.33707 11.1561 5.26591 10.9202 5.12362 10.7376ZM4.48704 11.7379C4.43098 11.8189 4.35354 11.8783 4.25474 11.9164C4.15593 11.9544 3.9601 11.9734 3.66713 11.9734H3.26033V10.9421H3.61942C3.88728 10.9421 4.06557 10.9504 4.15428 10.9669C4.2748 10.9884 4.37444 11.0421 4.45309 11.1281C4.53179 11.214 4.57113 11.3231 4.57113 11.4553C4.57118 11.5627 4.5431 11.6569 4.48704 11.7379Z" fill="black"/>
<path d="M8.91045 11.3202C8.8301 11.088 8.71288 10.8917 8.55888 10.7314C8.40488 10.5711 8.21985 10.4596 8.00391 10.3967C7.84321 10.3505 7.60965 10.3273 7.30331 10.3273H5.94475V13.9615H7.34348C7.61805 13.9615 7.83734 13.9359 8.00139 13.8846C8.22072 13.8153 8.39483 13.7186 8.52371 13.5946C8.69447 13.431 8.82587 13.217 8.91798 12.9526C8.99332 12.736 9.03097 12.4782 9.03097 12.1791C9.03097 11.8387 8.9908 11.5524 8.91045 11.3202ZM8.18721 12.8125C8.13698 12.9753 8.07212 13.0923 7.9926 13.1633C7.91307 13.2344 7.81305 13.2848 7.69252 13.3145C7.60047 13.3377 7.4506 13.3492 7.24302 13.3492H6.68806V10.9421H7.02204C7.32503 10.9421 7.52847 10.9537 7.63224 10.9769C7.77118 11.0066 7.88587 11.0636 7.97628 11.1479C8.06668 11.2322 8.13698 11.3495 8.18721 11.4999C8.23744 11.6503 8.26255 11.866 8.26255 12.1469C8.26255 12.4279 8.23744 12.6497 8.18721 12.8125Z" fill="black"/>
<path d="M12.19 10.9421V10.3273H9.66629V13.9615H10.4096V12.4171H11.9464V11.8023H10.4096V10.9421H12.19Z" fill="black"/>
</svg>
