<svg width="17" height="21" viewBox="0 0 17 21" fill="none" xmlns="http://www.w3.org/2000/svg">
<path d="M11.5631 0.1623C11.4647 0.0608826 11.3298 0 11.19 0H2.81953C1.27495 0 0 1.24281 0 2.7543V18.2455C0 19.7572 1.27495 21 2.81953 21H14.1805C15.725 21 17 19.7572 17 18.2455V5.94486C17 5.813 16.9378 5.68627 16.8497 5.58982L11.5631 0.1623ZM11.7134 1.79059L15.2534 5.42752H12.9522C12.268 5.42752 11.7134 4.88983 11.7134 4.22028V1.79059ZM14.1805 19.9855H2.81953C1.85038 19.9855 1.03659 19.1993 1.03659 18.2455V2.7543C1.03659 1.80581 1.84514 1.0145 2.81953 1.0145H10.6768V4.22028C10.6768 5.45284 11.6928 6.44202 12.9522 6.44202H15.9634V18.2455C15.9634 19.1993 15.1549 19.9855 14.1805 19.9855Z" fill="black"/>
<path d="M12.7656 16.4855H4.23445C3.94944 16.4855 3.71615 16.7137 3.71615 16.9928C3.71615 17.2717 3.94944 17.5 4.23445 17.5H12.7708C13.0558 17.5 13.2891 17.2717 13.2891 16.9928C13.2891 16.7137 13.0558 16.4855 12.7656 16.4855Z" fill="black"/>
<path d="M8.12167 14.6646C8.22022 14.766 8.35495 14.8269 8.5 14.8269C8.6452 14.8269 8.77993 14.766 8.87832 14.6646L11.9156 11.474C12.1125 11.271 12.097 10.9464 11.8897 10.7588C11.6823 10.5661 11.3506 10.5811 11.1589 10.7841L9.01829 13.0312V7.49214C9.01829 7.21304 8.78501 6.98489 8.5 6.98489C8.21498 6.98489 7.9817 7.21304 7.9817 7.49214V13.0312L5.8463 10.7841C5.64937 10.5813 5.32277 10.5661 5.11552 10.7588C4.90826 10.9516 4.89271 11.2712 5.08965 11.474L8.12167 14.6646Z" fill="black"/>
</svg>
