<svg width="27" height="19" viewBox="0 0 27 19" fill="none" xmlns="http://www.w3.org/2000/svg">
<path d="M13.499 19C13.4968 19 13.4943 19 13.4918 19C12.6771 18.9946 5.47474 18.9306 3.43417 18.3932C2.00808 18.0199 0.882322 16.9248 0.497938 15.5359C-0.0359975 13.5839 -0.00200857 9.82577 0.0016993 9.52568C-0.00180259 9.22699 -0.0362035 5.43774 0.49629 3.4697C0.496908 3.46789 0.49732 3.46589 0.497938 3.46408C0.877996 2.09101 2.02909 0.962056 3.43067 0.587745C3.43417 0.586742 3.43788 0.585939 3.44138 0.584936C5.45888 0.0686037 12.6755 0.00541608 13.4918 0H13.5064C14.3232 0.00541609 21.5447 0.069406 23.5665 0.607604C24.9889 0.979909 26.1139 2.07356 26.4993 3.46067C27.0532 5.43012 27.0019 9.22759 26.9963 9.54814C27.0003 9.86388 27.0326 13.5883 26.5017 15.5502C26.5013 15.5522 26.5007 15.554 26.5003 15.5558C26.1157 16.9447 24.9902 18.0397 23.5624 18.4135C23.5606 18.4141 23.5585 18.4145 23.5567 18.4151C21.5394 18.9312 14.3226 18.9944 13.5064 19C13.504 19 13.5015 19 13.499 19ZM2.53522 3.99646C2.06637 5.73362 2.11066 9.47452 2.11107 9.51224V9.53932C2.09707 10.5768 2.1463 13.5813 2.53542 15.0043C2.72411 15.6858 3.27926 16.2256 3.98335 16.4099C5.48896 16.8065 11.355 16.9313 13.499 16.9459C15.6486 16.9313 21.5233 16.8099 23.0178 16.4292C23.7196 16.2442 24.2729 15.7062 24.4628 15.024C24.8524 13.5801 24.9012 10.5902 24.887 9.55938C24.887 9.54854 24.887 9.53771 24.8872 9.52688C24.9065 8.47696 24.8684 5.43734 24.4647 4.00288C24.4643 4.00148 24.4639 4.00007 24.4636 3.99867C24.2741 3.31424 23.7188 2.77444 23.0147 2.59009C21.5237 2.19311 15.6482 2.06874 13.499 2.0541C11.3509 2.06874 5.48195 2.1899 3.98294 2.57023C3.29224 2.75678 2.72452 3.31584 2.53522 3.99646ZM10.8106 13.6593V5.34045L18.1934 9.5L10.8106 13.6593Z" fill="black"/>
</svg>
